<?xml version="1.0" encoding="UTF-8"?>
<svg id="_レイヤー_2" data-name="レイヤー 2" xmlns="http://www.w3.org/2000/svg" viewBox="0 0 121.21 55.21">
  <defs>
    <style>
      .cls-1, .cls-2 {
        fill: #a4a88d;
      }

      .cls-2 {
        font-family: GaramondPremrPro-MedCapt, 'Garamond Premier Pro';
        font-size: 36px;
      }

      .cls-3 {
        fill: #666;
        stroke: #bea072;
        stroke-linecap: round;
        stroke-miterlimit: 10;
      }

      .cls-4 {
        fill: #c4a672;
        font-family: GaramondPremrPro-SmbdItSubh, 'Garamond Premier Pro';
        font-size: 27px;
        font-style: italic;
      }

      .cls-5 {
        letter-spacing: .06em;
      }
    </style>
  </defs>
  <g id="_レイヤー_1-2" data-name="レイヤー 1">
    <text class="cls-2" transform="translate(.25 43.26)"><tspan x="0" y="0" xml:space="preserve">W  </tspan><tspan class="cls-5" x="49.93" y="0">R</tspan><tspan x="75.31" y="0">K</tspan></text>
    <g>
      <line class="cls-3" x1="44.95" y1=".5" x2="44.95" y2="36.5"/>
      <text class="cls-4" transform="translate(35.53 43.52)"><tspan x="0" y="0">o</tspan></text>
    </g>
    <g>
      <path class="cls-1" d="m103.77,42.97c.01-.22.02-.37.03-.53,0-.09.01-.2.06-.27.54-.78,1.09-1.56,1.62-2.34.37-.55.71-1.12,1.08-1.68.51-.78,1.04-1.54,1.56-2.32.37-.55.73-1.11,1.09-1.67.19-.3.36-.63.57-.92.14-.19.1-.31-.07-.42-.28-.18-.57-.33-.85-.51-.58-.36-1.15-.74-1.73-1.1-.86-.55-1.55-1.29-2.23-2.03-.17-.19-.32-.41-.44-.63-.3-.54-.6-1.07-.76-1.68-.16-.6-.36-1.18-.26-1.81.02-.13.12-.25.18-.38.05-.12.12-.24.14-.36.24-1.45,1.05-2.55,2.2-3.4.77-.57,1.7-.83,2.64-.91.47-.04.97.1,1.42.27.51.19,1.03.37,1.47.74.38.31.67.66.88,1.1.18.39.39.75.36,1.21-.04.59-.54,1.29-1.08,1.53-.6.26-1.16.3-1.76,0-.32-.16-.56-.38-.69-.69-.19-.46-.31-.94-.49-1.4-.25-.68-.74-1.21-1.49-1.04-.57.13-.93.57-1.17,1.09-.08.17-.12.37-.21.53-.26.46-.18.89-.04,1.37.28,1,.87,1.79,1.65,2.41.53.42,1.15.73,1.74,1.07.48.27.98.5,1.48.74.41.2.82.41,1.3.39.11,0,.25-.06.31-.14.29-.39.56-.79.83-1.19.43-.64.86-1.27,1.28-1.92.35-.53.68-1.07,1.03-1.61.35-.53.7-1.06,1.05-1.59.41-.62.81-1.24,1.22-1.86.14-.2.29-.4.45-.58.04-.05.14-.07.21-.07.42,0,.84-.01,1.26,0,.27.01.35.13.22.38-.17.32-.37.62-.57.92-.41.61-.82,1.21-1.23,1.82-.37.55-.75,1.1-1.12,1.65-.37.56-.73,1.13-1.11,1.69-.37.55-.75,1.1-1.12,1.65-.21.31-.41.62-.61.93-.07.1-.13.21-.21.3-.25.29-.14.66.21.83.42.21.82.46,1.22.7.27.16.53.33.79.51,1.12.74,2.04,1.69,2.78,2.8.31.47.59.98.65,1.57.01.13.15.24.22.36.04.06.08.13.08.2,0,.53.02,1.07,0,1.6,0,.15-.08.29-.12.44-.09.29-.16.59-.29.86-.19.42-.37.86-.65,1.23-.33.43-.73.84-1.16,1.17-.38.3-.79.6-1.31.66-.14.01-.35-.03-.33.24,0,.02-.13.07-.2.07-.62.03-1.24.07-1.86.06-.64-.01-1.17-.32-1.69-.67-.46-.31-.77-.75-1.1-1.18-.07-.09-.13-.2-.14-.31-.04-.42-.07-.83-.08-1.25,0-.33.17-.59.4-.83.91-.93,2.37-.73,2.86.44.16.37.29.76.39,1.16.26,1.02,1.47,1.39,2.25.68.55-.49.8-1.09.82-1.84.04-1.18-.46-2.08-1.35-2.79-.47-.38-.99-.71-1.51-1.01-.56-.33-1.16-.61-1.73-.91-.42-.22-.83-.46-1.23-.7-.18-.11-.55.02-.73.29-.34.52-.67,1.06-1.01,1.59-.39.6-.79,1.19-1.18,1.78-.35.54-.69,1.09-1.05,1.63-.39.6-.79,1.19-1.17,1.78-.22.34-.41.69-.64,1.02-.21.31-.44.62-.7.88-.13.13-.37.19-.56.21-.34.03-.68,0-.99,0Z"/>
      <path class="cls-1" d="m104.62,36.22c-.06-.06-.12-.16-.19-.18-.29-.08-.49-.24-.62-.51-.11-.24-.24-.48-.32-.73-.04-.13,0-.3.04-.44.08-.23.19-.45.3-.67.35-.76,1.65-1.08,2.35-.62.55.36.88.81.91,1.48.03.58-.32,1.2-.85,1.43-.03.02-.09.02-.1.04-.3.44-.76.27-1.16.3-.13,0-.26-.02-.4-.03.01-.02.03-.05.04-.07Z"/>
      <path class="cls-1" d="m117.64,28.68c-.04-.59.25-1.02.74-1.34,1-.65,2.19-.33,2.73.73.25.48,0,1.25-.46,1.67-.58.53-1.26.51-1.94.36-.56-.12-1.07-.85-1.07-1.43Z"/>
    </g>
  </g>
</svg>