<?xml version="1.0" encoding="UTF-8"?>
<svg id="_レイヤー_2" data-name="レイヤー 2" xmlns="http://www.w3.org/2000/svg" viewBox="0 0 10 9.69">
  <defs>
    <style>
      .cls-1 {
        fill: #bea072;
      }
    </style>
  </defs>
  <g id="PC文字">
    <path class="cls-1" d="m4.93,9.69c-.4-.01-.73-.16-.98-.48-.17-.22-.19-.47-.09-.72.11-.27.31-.47.48-.69.13-.17.27-.34.38-.52.1-.18.1-.39.07-.6-.07-.4-.48-.54-.79-.47-.25.06-.44.16-.53.41-.09.24-.12.49-.12.75,0,.2-.02.39-.09.57-.09.23-.23.41-.45.51-.14.07-.3.12-.45.15-.22.05-.43-.04-.63-.13-.3-.14-.48-.39-.57-.71-.01-.04-.02-.09-.04-.13-.12-.31.11-.8.32-.96.23-.17.48-.27.77-.29.19-.01.38-.02.56-.05.31-.05.54-.21.66-.52.08-.22-.04-.51-.26-.63-.23-.12-.46-.09-.68.02-.22.11-.42.26-.62.4-.21.15-.42.31-.67.38-.06.02-.14.03-.2.02-.34-.06-.63-.22-.81-.52-.35-.58-.17-1.37.46-1.65.18-.08.38-.1.58-.06.29.05.52.22.76.38.2.14.39.28.6.41.31.2.65.07.84-.15.05-.06.08-.17.09-.25.02-.34-.19-.63-.52-.71-.18-.04-.36-.07-.54-.07-.23,0-.45-.02-.66-.09-.36-.11-.61-.35-.71-.73-.09-.36.05-.65.25-.92.11-.15.25-.28.42-.38.26-.14.54-.15.83-.09.29.06.45.27.55.53.11.28.14.57.2.86.05.2.09.4.16.59.11.31.51.45.75.32.11-.06.23-.09.34-.15.13-.07.17-.21.19-.35.03-.25-.03-.48-.18-.67-.18-.24-.37-.47-.54-.71-.08-.11-.15-.23-.2-.36-.09-.25,0-.47.14-.68.18-.26.42-.43.74-.51.24-.05.46-.05.69.03.23.08.42.22.57.42.24.33.27.7.08,1.06-.1.19-.25.34-.37.51-.1.14-.23.27-.32.41-.07.12-.14.26-.15.39-.01.22.09.42.27.54.11.08.24.14.36.2.12.06.23-.01.33-.07.3-.18.41-.47.45-.79.01-.1,0-.2,0-.3.01-.27.05-.54.19-.78.16-.28.41-.42.71-.46.21-.03.42-.03.62.04.36.13.6.38.68.75.09.43,0,.82-.37,1.1-.22.17-.49.24-.77.26-.19.01-.39.02-.58.06-.29.05-.5.22-.61.5-.05.12-.05.24.01.36.04.07.07.15.11.21.11.17.4.25.59.19.28-.08.48-.28.7-.45.21-.17.41-.38.67-.47.36-.13.73-.07,1,.18.17.16.3.36.36.6.11.45-.02.82-.32,1.16-.18.2-.41.33-.68.35-.1.01-.22-.02-.31-.07-.25-.15-.48-.32-.71-.49-.19-.13-.34-.3-.57-.36-.18-.04-.36-.05-.54.01-.15.05-.19.19-.27.31-.21.32.08.74.39.8.34.07.69.13,1.03.2.17.04.35.1.51.18.19.09.29.27.34.47.07.32.07.64-.11.92-.17.28-.43.45-.75.53-.08.02-.16.05-.24.05-.26.01-.47-.1-.65-.27-.2-.18-.34-.41-.38-.68-.03-.2-.05-.4-.06-.6-.02-.25-.09-.48-.26-.67-.25-.28-.74-.29-1.03.05-.11.13-.17.28-.2.44-.01.08.03.19.08.26.17.26.35.51.53.76.14.2.28.4.32.64.08.42-.03.74-.41.95-.23.13-.47.19-.74.19Zm.09-5.67c-.52,0-.89.36-.88.84,0,.44.42.83.89.82.44,0,.82-.41.81-.86-.01-.47-.36-.78-.81-.79Z"/>
  </g>
</svg>