<?xml version="1.0" encoding="UTF-8"?>
<svg id="_レイヤー_2" data-name="レイヤー 2" xmlns="http://www.w3.org/2000/svg" viewBox="0 0 499.18 159.54">
  <defs>
    <style>
      .cls-1 {
        fill: #a4a88d;
      }
    </style>
  </defs>
  <g id="PC文字">
    <path class="cls-1" d="m481.83,103.67c.53-3.5.22-6.93-.4-10.49-2.94-.06-5.73.13-8.69.84.56.95,1.02,1.73,1.55,2.63-1.34.49-2.33,0-3.3-.57-1-.59-1.95-1.25-2.27-2.43-.35-1.3.47-2.67,1.89-3.09.91-.27,1.86-.37,2.8-.52,2.31-.37,4.62-.75,6.94-1.07.89-.12,1.23-.55,1.11-1.39-.09-.69-.21-1.38-.32-2.07-.08-.5-.21-1-.21-1.5,0-.84.12-1.73,1.06-2.03.84-.27,1.41.32,1.93.92.85.98,1.74,1.94,2.66,2.96-.92.94-2.03,1.63-1.29,2.98,2.12,0,4.26.05,6.38-.02,1.07-.03,2.13-.32,3.2-.42,1.63-.15,3.11.17,4.31,1.41-.33,1.17-1.3,1.27-2.12,1.44-2.78.59-5.52,1.42-8.42,1.32-1-.03-2,.22-2.99.34-.73,1.71-.34,3.38-.09,4.95.52,3.26-.21,6.44-.29,9.65-.02.76-.14,1.51-.15,2.27-.04,5.57-.33,11.13-1.07,16.66-.55,4.13-1.07,8.27-1.54,12.41-.57,5.09-1.07,10.19-1.62,15.29-.11,1.07-.24,2.14-.44,3.2-.09.48-.31.97-.61,1.35-.38.48-.85,1.05-1.59.75-.7-.29-1.09-.86-1.04-1.65.03-.57.08-1.14.14-1.7.44-4.47.9-8.94,1.3-13.41.17-1.89.19-3.79.28-5.69.04-.83-.24-1.42-1.02-1.86-3.59-2.06-5.49-5.48-6.56-9.21-1.32-4.61-2.26-9.35-2.08-14.22.11-3.05.62-6.06,2.02-8.8,1.2-2.33,3.23-3.03,5.61-1.97,1.65.74,3.19,1.74,4.94,2.72Zm-2.34,28.22c.32-2.66.61-4.78.83-6.91.33-3.27.66-6.54.88-9.82.18-2.78-.57-5.39-1.85-7.84-.66-1.26-1.72-2.18-3.09-2.66-1.31-.46-1.74-.2-2.36,1.05-.97,1.98-1.09,4.12-1.38,6.24-.37,2.77.65,5.36.87,8.05.26,3.14,1.76,5.78,3.27,8.4.66,1.16,1.7,2.1,2.85,3.48Z"/>
    <path class="cls-1" d="m186.1,121.67c1.08-.38,1.99-.56,2.75-1,1.47-.85,3.11-1.62,4.24-2.83,3.79-4.05,6.31-8.83,7.22-14.35.53-3.2-.3-5.94-3.17-7.74-.88-.55-1.93-1.03-2.95-1.16-4.64-.58-9.22-.18-13.69,1.27-.78.25-1.31.65-1.63,1.44-1.15,2.87-2.27,5.75-3.56,8.55-.62,1.36-1.6,2.56-2.4,3.84-.39.63-.74,1.28-1.17,2.01.5.26.82.43,1.18.62-.1.14-.17.34-.3.41-1.02.6-2.18,1.04-3.05,1.81-1.03.91-1.78,2.13-2.72,3.16-2.39,2.61-4.65,5.38-7.77,7.18-.87.5-1.82.9-2.76,1.27-3.11,1.21-4.97-.33-5.56-3.22-.79-3.86-.34-7.61,1.68-11.02,1.41-2.38,2.59-4.98,4.82-6.77,2.41-1.93,4.69-4.04,7.48-5.46,1.28-.65,2.06-1.52,1.96-3.12-.1-1.51.12-3.04.18-4.55.02-.43-.04-.86-.08-1.55-.85.22-1.6.29-2.24.6-1.65.8-3.25,1.7-4.87,2.56-.28.15-.52.43-.81.48-.39.06-.96.11-1.19-.11-.24-.24-.35-.86-.21-1.19.57-1.36,1.38-2.55,2.86-3.13,1.89-.73,3.74-1.57,5.66-2.24,1.06-.37,1.5-.96,1.58-2.06.1-1.51.27-3.03.57-4.52.41-2.05,1.3-2.6,3.27-1.91,1.34.47,2.97.25,4.06,1.67-.25.22-.47.54-.77.66-.27.11-.62,0-.94.02-1.02.04-2.26-.87-3.01.28-.73,1.12-.72,2.5-.36,4.07.97-.22,1.99-.2,2.73-.65,2.03-1.23,4.34-1.27,6.54-1.78.43-.1.94-.02,1.3-.22,1.87-1.06,4.08-.69,6.01-1.48.12-.05.33.11.62.21-.52,1.26-1.66,1.75-2.71,2.11-4.47,1.55-8.98,2.99-13.48,4.44-1.24.4-1.89,1.16-1.93,2.49-.06,2.06-.2,4.12-.31,6.32,2.7-1.01,5.13-1.86,7.5-2.85.49-.2.92-.85,1.12-1.38.34-.95.46-1.97.72-2.95.16-.61.33-1.23.61-1.79.5-1.02,1.21-1.31,1.95-.89.75.42.89,1.12.3,2.1-.64,1.06-.9,2.18-.81,3.57.99-.17,1.88-.35,2.78-.47,1.5-.2,3.01-.36,4.52-.55,2.76-.35,5.48.02,8.09.77,4.67,1.35,7.51,5.59,6.73,10.68-.48,3.11-1.3,6.07-2.58,8.9-.72,1.59-1.8,3.03-2.78,4.49-.7,1.04-1.44,2.09-2.29,3.01-1.7,1.84-3.83,3.11-6.05,4.22-1.89.95-2.7.56-2.98-1.49-.05-.35.09-.72.1-.77Zm-19.76-19.47c-1.7,1.01-3.32,1.74-4.67,2.82-3.82,3.05-6.91,6.67-8.5,11.42-.61,1.81-.73,3.58-.21,5.4.53,1.86,1.68,2.47,3.45,1.64,1.08-.5,2.09-1.2,3.03-1.94,3.15-2.5,5.56-5.7,8.25-8.64.55-.6.46-1.18.31-1.92-.49-2.35-.86-4.72-1.28-7.08-.09-.48-.2-.95-.37-1.71Zm9.72-4.46c-2.35.41-4.48,1.13-6.47,2.17-.35.18-.64.81-.65,1.24-.02,1.82.01,3.66.17,5.47.08.89.49,1.76.89,3.07,3.04-3.77,4.29-7.93,6.06-11.95Z"/>
    <path class="cls-1" d="m197.34,51.45c-1.34-2.42-.46-5.25-1.28-8.13-.63.67-1.12,1.12-1.52,1.64-1.28,1.65-2.51,3.33-3.8,4.97-.53.67-.99,1.61-2.11,1.21-.74-.27-.93-1.32-.28-2.54.65-1.22,1.44-2.37,2.31-3.44,2.49-3.05,4.05-6.55,5.14-10.28.15-.52.12-1.09.19-1.73-1.24-.29-2.11.03-2.83.84-.21.23-.35.68-.58.72-.58.11-1.22.17-1.77.01-.61-.17-.89-.84-.62-1.4.36-.77.8-1.6,1.44-2.12.66-.53,1.58-.77,2.43-1.02,1.96-.59,1.94-.56,2.02-2.53.1-2.47.21-4.94.39-7.4.08-1.07.27-2.14.5-3.19.12-.54.32-1.18,1.08-1.11.75.07,1.1.64,1.15,1.3.05.62-.07,1.26-.13,1.89-.4,4.16-.71,8.32-.36,12.5.07.88-.07,1.77-.09,2.65-.02.66,0,1.33,0,2.34.82-.36,1.35-.5,1.79-.79,4.91-3.29,10.11-6.05,15.56-8.31,2.33-.97,4.75-1.75,7.16-2.52.77-.25,1.63-.28,2.45-.27,2.14.03,3.51,1.53,3.48,3.66-.02,1.74-.39,3.38-1.21,4.93-1.69,3.19-3.43,6.34-5.99,8.96-.79.81-1.32,1.87-2.11,2.68-1.94,1.99-3.95,3.9-5.94,5.83-.09.09-.19.21-.3.22-.29.03-.69.13-.85,0-.17-.15-.25-.64-.13-.83.92-1.43,1.74-2.98,2.9-4.2,3.98-4.21,7.52-8.72,10.12-13.91.5-.99.82-2.13.95-3.23.14-1.17-.25-1.48-1.42-1.46-.62.02-1.25.16-1.86.31-3.58.89-6.94,2.31-10.25,3.96-4.49,2.23-8.68,4.93-12.86,7.64-1.16.75-1.74,1.69-1.67,3.15.11,2.02.07,4.05,0,6.08-.03.97-.28,1.94-.43,2.91-.21,0-.42,0-.63,0Z"/>
    <path class="cls-1" d="m318.08,106.78c.34.42.73.78.94,1.22.14.29.13.75,0,1.04-.1.19-.57.35-.83.29-1.24-.3-2.56-.6-3.17-1.86-.57-1.18-.26-2.48.53-3.4,1.36-1.57,2.86-3.04,4.44-4.39.74-.64,1.15-1.11,1.06-2.17-.24-2.84-.29-5.69-.44-8.53-.1-1.83-.36-3.66-.34-5.48.03-2.8,1.01-3.3,3.39-1.87.27.16.53.35.75.57.13.12.17.33.34.68-.49.41-.99.84-1.67,1.41v13.03c.18.03.34.11.42.06,2.33-1.41,4.96-1.86,7.56-2.4,1.92-.4,3.85-.76,5.76.16,2.08,1,3.39,2.61,4,4.79.66,2.37.65,4.73-.24,7.08-.87,2.3-1.48,4.71-2.48,6.95-.95,2.13-2.12,4.18-3.43,6.12-1.73,2.56-3.67,4.98-5.53,7.45-.61.81-1.23,1.61-1.85,2.41-1.55,1.99-3.67,3.28-5.74,4.62-1,.65-1.95.57-2.43,0-.56-.67-.6-2.13-.02-2.86.17-.22.53-.47.76-.43,1.05.17,1.62-.53,2.31-1.08,4.19-3.38,7.51-7.48,10.13-12.17.77-1.38,1.75-2.66,2.39-4.1,1.22-2.77,2.38-5.58,3.31-8.46.41-1.27.36-2.77.18-4.12-.36-2.62-2.37-3.97-5.36-3.37-1.72.34-3.41.91-5.08,1.49-1.01.35-2.02.78-2.9,1.37-2.44,1.66-5.06,3.14-6.76,5.99Z"/>
    <path class="cls-1" d="m13.55,23.16c-2.59-.08-4.37,2.06-6.95,2.32,0-1.44.37-2.41,1.68-2.94,1.75-.71,3.28-1.87,5.23-2.22.6-.11,1.04-1.12,1.73-1.91.35.08.94.3,1.54.36,1.13.11,2.27.25,3.39.17,1.51-.1,3.01-.4,4.52-.59,1.15-.14,2.27-.06,3.42.93-.36.27-.67.69-.94.68-3.04-.19-5.87.9-8.8,1.42-1.44.25-2.47.91-2.51,2.58-.02.94-.2,1.88-.26,2.82-.09,1.45-.15,2.91-.2,4.36-.02.67,0,1.35,0,2.3.95-.31,1.67-.5,2.34-.77,4.17-1.7,8.26-3.59,12.51-5.06,2.73-.94,5.65-1.41,8.53-1.81,2.04-.29,4.17-.34,6.22-.13,2.62.26,3.27,1.82,2.07,4.15-1.21,2.36-3.12,4.13-4.89,6.02-2.73,2.92-5.94,5.12-9.62,6.66-1.03.43-2.04.63-3.12.14-1.51-.68-1.97-1.41-1.9-3.25.11-.02.28-.11.32-.06,1.64,1.74,3.33,1.68,5.47.72,4.98-2.24,8.47-6.1,11.85-10.14.24-.29.38-.66.55-1,.38-.77,0-1.22-.7-1.45-.42-.13-.87-.19-1.31-.19-2.41-.03-4.77.17-7.15.68-4.24.92-8.29,2.31-12.21,4.13-2.35,1.09-4.78,2.01-7.19,3-1.75.72-2.5,1.95-2.75,3.87-.34,2.62-1.12,5.19-1.73,7.78-.09.36-.27.71-.44,1.05-1.38,2.69-3.41,3.11-5.88,2.2-1.14-.42-2.13-1.32-3.11-2.11-.88-.72-1.68-1.55-2.46-2.37-1.13-1.19-1.02-2.38.34-3.33,1.81-1.27,3.58-2.57,5.63-3.5,2.06-.93,3.98-2.2,5.92-3.39.32-.2.63-.68.65-1.05.19-3.54.33-7.08.46-10.62,0-.11-.11-.22-.23-.45Zm-.67,14.42c-.8.4-1.36.64-1.87.95-1.52.91-3.04,1.82-4.53,2.77-1.01.64-2.02,1.3-2.94,2.07-.28.23-.49,1.04-.31,1.26,1.43,1.8,2.98,3.48,5.57,3.45,1.2-.02,2.11-.53,2.49-1.65.93-2.75,1.25-5.62,1.6-8.83Z"/>
    <path class="cls-1" d="m468.64,118.63c-.91,1.19-1.95,1.27-2.92,1.18-2.52-.23-5.03-.58-7.54-.89-.75-.09-1.49-.24-2.39-.39-.3.61-.59,1.15-.85,1.71-.75,1.62-2.02,2.21-3.79,2.34-4.05.29-7.52-3.5-8.4-6.76-.4-1.47.48-2.7,2.05-2.78,1.38-.07,2.77.11,4.15.3,1.36.18,2.7.5,4.27.8.36-2.02.7-3.79.45-5.89-.87,0-1.66-.02-2.45,0-1.18.04-1.77-.25-1.97-1.03-.21-.83.27-1.74,1.19-2.13.4-.17.85-.25,1.28-.36q1.73-.43,1.42-2.43c-.24.09-.49.12-.65.27-1.09,1.02-1.71,1.05-2.89.13-.81-.63-.95-1.45-.18-2.51.46-.63,1.14-1.24,1.85-1.53,1.32-.53,2.04-1.24,2.11-2.77.07-1.48,1.09-2.03,2.2-1.15,2.37,1.87,4.82,3.76,6.15,6.59.92,1.97.65,2.66-.93,4.15-1.02.96-2.06,1.87-3.57,2.1-.11,1.96-.26,3.85-.32,5.74-.06,1.95.06,2.07,2,2.55,2.33.58,4.68,1.12,7,1.74.87.23,1.7.64,2.72,1.03Zm-21.43-1.84l-.13.53c.9,1.29,2.19,1.8,3.73,1.68.65-.05,1.19-.39,1.11-1.45-1.57-.25-3.14-.51-4.7-.76Zm11.25-15.61c-1.18,0-1.55.39-1.53,1.31,0,.59.08,1.16.85,1.21.81.06,1.58-.7,1.42-1.57-.08-.41-.57-.75-.74-.95Z"/>
    <path class="cls-1" d="m105.38,50.77c1.16,1.58,1.54,3.58,3.27,5.22,1.27-7.63,1.23-15.07,1.61-22.47.37-7.38.75-14.76-.47-22.16-1.77-.26-3.53.21-5.29.74-1.39.42-2.76.91-4.16,1.31-.72.21-1.07.66-1.1,1.36-.03.93,0,1.86,0,2.87,2.96.16,5.24-1.83,8.34-1.45-.62.55-.97,1-1.42,1.24-1.46.75-2.96,1.41-4.45,2.11-.4.19-.79.4-1.2.58-1.02.46-1.61,1.18-1.53,2.36.02.36-.07.73-.12,1.15-1.02.09-1.36-.54-1.35-1.24.04-3.64-.88-7.29.22-10.95.4-1.34.63-2.8.11-4.29-.41-1.19.14-2.45,1.13-2.94,3.06-1.5,6.02-3.24,9.41-4.01,2.19-.5,2.95-.18,3.29,2.1.4,2.68.55,5.4.75,8.11.14,2.01.06,4.05.3,6.05.52,4.31.02,8.6-.13,12.89-.15,4.17-.32,8.34-.58,12.51-.28,4.42-.67,8.83-1.01,13.24-.07.88-.13,1.76-.19,2.65-.03.44.04.9-.05,1.32-.28,1.31-1.5,1.76-2.38.76-.9-1.03-1.64-2.25-2.24-3.49-.84-1.73-1.08-3.61-.75-5.57Zm4.72-40.49c0-1.14.03-1.88,0-2.61-.05-1.14-.12-2.27-.21-3.4-.11-1.57-.82-2.1-2.26-1.5-1.87.78-3.7,1.64-5.49,2.59-1.71.91-2.34,3.11-1.53,5.17,3.06.02,6.04-2.04,9.49-.24Z"/>
    <path class="cls-1" d="m261.58,39.09c-.51,1.75-1.61,3.07-3.1,4.09-.99.68-2.03,1.28-3.05,1.93-3.13,1.99-6.61,2.46-10.04,1.48-4.78-1.37-8.19-4.41-9.44-9.46-.1-.41-.26-.81-.48-1.48-1.58,1.23-3.64,1.56-4.14,3.8-.07.32-.72.67-1.13.71-.59.05-1.08-.32-1.19-1-.18-1.16.25-2.15,1.04-2.93.62-.61,1.4-1.07,2.12-1.58.47-.33.95-.63,1.44-.93,1.36-.84,2.11-1.84,2.1-3.65,0-1.79.66-3.59,1.13-5.36.13-.48.59-1.13.98-1.19.41-.07.97.41,1.36.78.51.48.69,1.18.15,1.7-1.14,1.09-.96,2.55-1.29,3.88-.04.16.08.35.16.7.41-.05.85-.02,1.21-.17,1.53-.61,3-1.38,4.56-1.89,1.9-.62,2.64-1.98,3-3.78.31-1.55.69-3.09,1.13-4.6.18-.64.57-1.22.87-1.82,1.25.2,1.75.9,1.7,1.86-.05.86-.26,1.74-.57,2.55-.43,1.13-.76,2.25-.58,3.68,1.19-.29,2.25-.63,3.33-.81,1.3-.22,1.41-.09,2.07,1.46-.36.18-.72.41-1.11.53-.66.21-1.34.44-2.02.51-2.91.31-4.24,2.05-4.74,4.79-.4,2.2-1.34,4.22-2.87,5.91-.54.59-1.08,1.24-2.32.98,1.21-2.89,2.69-5.59,3.2-8.87-.62.19-.98.24-1.29.39-1.42.7-2.8,1.48-4.25,2.12-.98.43-1.38,1.09-1.17,2.09.19.92.33,1.87.71,2.71,1.55,3.42,4.47,5.17,7.99,5.66,2.21.31,4.58.1,6.67-1.01,1.68-.89,3.29-1.9,4.94-2.83.86-.49,1.75-.92,2.62-1.38.11.14.22.29.33.43Z"/>
    <path class="cls-1" d="m62.4,6.44c1.7.73,3.43-.28,5.25-.75.43-.11.87-.2,1.31-.26,2.44-.31,4.08,1.05,4.16,3.5.09,2.74-.27,5.43-1.18,8.04-.29.83-.52,1.62.79,2.06-2.06,1.78-3.28,3.9-4.41,6.08-.28.54-.66,1.16-1.47.53-.11-.09-.58.14-.78.33-1.43,1.32-2.49,3.04-4.33,3.94-.3.14-.37.89-.42,1.37-.57,5.48-1.12,10.96-1.69,16.44-.05.5-.03,1.07-.27,1.48-.21.36-.73.55-1.11.82-.19-.36-.51-.71-.54-1.08-.05-.56.11-1.13.15-1.7.52-6.69,1.01-13.39,1.57-20.08.35-4.23.82-8.44,1.19-12.67.05-.52,0-1.26-.31-1.56-.57-.55-1.14-.96-1.03-1.86.12-.99.54-1.77,1.29-2.45.63-.57,1.11-1.29,1.85-2.17Zm6.87,10.37c-.44-.03-.8-.08-1.17-.09-1.81-.02-3.22.86-4.62,1.92-1.19.9-1.25,2.12-1.38,3.36-.11,1.07-.21,2.14-.28,3.21-.02.39.09.79.15,1.33,2.7-1.54,4.43-3.86,6.57-5.7.31-.27.48-.74.62-1.15.35-1.02.75-2.03.94-3.08.4-2.23.81-4.48.96-6.73.11-1.61-1.07-2.5-2.61-2.15-1.29.29-2.54.76-3.78,1.25-.44.17-.98.55-1.11.94-.58,1.78-.73,3.62-.57,5.74.82-.28,1.4-.37,1.86-.64,1.31-.79,2.6-.3,3.85.05.73.21.87.84.54,1.75Z"/>
    <path class="cls-1" d="m312.04,108.4c.25,1.41-.4,2.07-1.02,2.67-1.55,1.49-2.98,3.21-4.78,4.3-3,1.83-6.04,3.75-9.71,4.04-.81.06-1.67.06-2.45-.15-1.98-.54-3.12-2.1-3.23-4.22-.14-2.79,1.07-5.18,2.39-7.5.84-1.48,1.82-2.88,2.79-4.41-1.99-1.94-2.81-4.32-2.54-7.04.08-.79.37-1.61.74-2.32.56-1.09,2.24-1.6,3.33-1.14.76.32.94,1.02.43,1.68-.15.2-.38.34-.55.52-1.37,1.39-1.66,3.18-.78,4.84.64,1.2,1.32,1.3,2.4.43.83-.67,1.67-1.39,2.62-1.83,1.52-.7,3.13-.24,4.13.96.96,1.15.87,2.15-.34,3.06-1.33,1.01-2.83,1.73-4.5,1.87-1.13.1-1.96.55-2.52,1.45-1.27,2.04-2.51,4.1-3.71,6.18-.31.54-.51,1.17-.64,1.78-.39,1.87.36,2.73,2.25,2.31,1.72-.38,3.43-.96,5.01-1.74,2.72-1.34,5.33-2.91,8-4.38.82-.45,1.66-.86,2.69-1.39Z"/>
    <path class="cls-1" d="m247.1,109c-.65,1.32-1.19,2.61-1.89,3.79-1.32,2.22-2.71,4.4-4.12,6.56-.26.4-.73.78-1.17.9-.48.13-1.35.13-1.51-.14-.27-.44-.32-1.26-.07-1.71.81-1.5,1.84-2.87,2.7-4.34,1.02-1.75,1.95-3.55,2.89-5.34.22-.43.33-.92.6-1.72-1.05.19-1.83.29-2.59.48-1.81.44-2.58-.18-2.21-2.02.18-.89.64-1.83,1.24-2.51,1.04-1.18,2.17-2.35,3.48-3.21,1.15-.75,1.64-1.68,1.86-2.9.11-.62.15-1.27.36-1.86.15-.42.5-1.02.83-1.06.36-.05.94.35,1.17.72.45.74.73,1.59,1.14,2.54.43-.03.92-.1,1.4-.09,1.25.04,2.57-.12,3.74.22,2.92.84,4.24,4.07,2.75,6.71-1.4,2.48-3.42,4.39-6.11,5.48-1.23.5-2.3.38-4.5-.51Zm6.79-9.2c-2.8-.04-4.39.92-4.93,2.73-.27.9-.46,1.83-.6,2.76-.15,1.02.4,1.56,1.43,1.44.36-.04.73-.18,1.06-.36,1.64-.87,3.07-1.96,4.05-3.58.39-.64,1-1.33.38-2.04-.45-.52-1.17-.8-1.39-.94Zm-9.85,4.79c1.5.25,1.52.24,1.28-1.46-.43.49-.76.87-1.28,1.46Z"/>
    <path class="cls-1" d="m167.72,14.37c-1.37,1.08-1.47,2.64-2.05,3.94-1.05,2.36-1.86,4.84-2.94,7.19-2.51,5.53-5.11,11.03-7.69,16.53-1.13,2.41-2.03,4.89-2.52,7.51-.1.53-.36,1.14-.75,1.46-.36.3-1.07.45-1.5.3-.3-.1-.6-.85-.53-1.25.2-1.18.45-2.38.91-3.48,1.55-3.74,3.07-7.5,4.85-11.13,3.71-7.57,6.97-15.32,9.93-23.2.22-.59.44-1.19.68-1.77.97-2.29,2.61-2.48,4.34-.42-.16.22-.32.49-.52.71-.2.21-.46.38-.88.71.65.51,1.15.98,1.72,1.32,2.77,1.64,5.59,3.19,8.33,4.87,1.39.86,2.7,1.87,3.97,2.91.93.76,1.55,1.76,1.73,3.49-5.5-4.03-11.53-6.23-17.07-9.69Z"/>
    <path class="cls-1" d="m161.37,35.55c.71.04,1.48-.09,2.07.17,1.54.68,2.9.19,4.37-.23,2.79-.8,5.61-1.53,8.46-2.08,1.98-.38,4.02-.52,6.04-.53,2.29-.01,3.14,1.7,2.14,3.76-.5,1.04-1.58,1.85-1.38,3.23.03.19-.37.49-.61.67-1.15.89-2.25,1.85-3.48,2.6-2.43,1.49-4.97,2.75-7.72,3.59-1.32.4-2.6.97-3.53,2.13-.63.78-1.5.54-2.27.24-.66-.25-.61-.82-.56-1.44.04-.54-.06-1.14-.28-1.64-1.12-2.54-2.27-5.08-3.49-7.58-.51-1.05-.37-1.92.24-2.89Zm21.17-.11c-.96,0-1.46-.08-1.93.01-2.29.49-4.56,1.01-6.84,1.54-1.41.33-2.83.65-4.22,1.06-.96.29-1.91.66-2.82,1.11-.68.33-1.32,2.65-1.05,3.38.2.53.4,1.06.58,1.6.47,1.42.6,1.55,2.03,1.05,1.61-.56,3.15-1.3,4.74-1.93,1.47-.58,3.01-1,4.42-1.71,2.41-1.21,3.95-3.21,5.09-6.13Z"/>
    <path class="cls-1" d="m393.64,96.76c-.81-.97-1.37-1.63-1.92-2.32-.32-.39-.66-.78-.88-1.23-.39-.79-.15-2.01.42-2.46.56-.45,1.41-.33,2.18.51.9.97,1.73,2.02,2.49,3.1,1.36,1.92,1.88,2.1,4.15,1.47,1.7-.48,3.43-.86,5.15-1.23.32-.07.93.06.99.24.12.35.1.94-.13,1.18-1.28,1.35-2.77,2.39-4.66,2.74-.72.13-1.44.32-2.3.52.18.6.28,1.01.42,1.4.89,2.5,1.92,4.95,2.65,7.49.65,2.24-.44,4.43-2.38,5.21-.57.23-1.26.17-2.15.26.18-.55.2-.83.34-.99,1.35-1.52,1.32-3.3.72-5.01-.71-2.02-1.69-3.95-2.57-5.91-.48-1.08-1.35-1.48-2.47-1.28-2.22.4-4.56.47-6.32,2.23-.51.51-1.03.33-1.54-.04-1.46-1.07-1.28-3.26.5-3.99,1.74-.72,3.6-1.12,5.42-1.63.47-.13.97-.13,1.87-.25Z"/>
    <path class="cls-1" d="m231.98,92.17c.08,4.04-.78,7.94-2.08,11.72-1.35,3.94-2.88,7.83-4.48,11.68-1.19,2.86-2.58,5.64-3.95,8.42-.38.78-.94,1.51-1.55,2.13-.29.3-.97.54-1.31.41-.3-.12-.53-.8-.53-1.24,0-.54.21-1.11.44-1.62,1.99-4.31,4.2-8.53,5.98-12.93,2.36-5.87,4.48-11.85,4.85-18.26.06-1.07-.05-2.15-.06-3.22,0-.56-.03-1.34.71-1.32.52.02,1.27.44,1.47.88.35.78.37,1.71.51,2.58.04.25,0,.51,0,.76Z"/>
    <path class="cls-1" d="m93.77,32.3c.31.29.57.54.81.76-.05.19-.04.36-.12.42-3.51,3.07-6.97,6.22-11.12,8.44-.45.24-1.07.17-1.63.25-1.18-3.16-2.78-5.98-3.06-9.27-.04-.49-.33-.95-.5-1.43-.43-1.22-.31-2.64.38-2.97.94-.46,1.84-.19,2.65.49-.14.7-.28,1.39-.49,2.45.91-.25,1.49-.38,2.06-.56,2.64-.88,5.26-1.8,7.91-2.65.58-.19,1.27-.29,1.86-.18,1.37.25,2.14,1.71,1.71,3.02-.14.41-.3.82-.45,1.22Zm-10.91,1.57c-.37.93.57,1.68-.35,2.18-1.05.57-.42,1.34-.15,1.95.33.74,1,.6,1.63.3,1.92-.94,3.89-1.76,5.24-3.6.92-1.25,2.08-2.32,2.7-3.9-3.2.68-6.24,1.69-9.06,3.07Z"/>
    <path class="cls-1" d="m399.59,127.52c-1.25,1.45-1.67,1.67-2.78.79-1.81-1.45-3.53-3.05-5.15-4.72-1.67-1.72-3.17-3.6-4.75-5.41-1.43-1.64-2.42-3.53-3.15-5.57-.06-.18-.09-.37-.12-.55-.2-1.21.2-2.13,1.02-2.38.84-.25,1.7.25,2.11,1.46.86,2.51,2.5,4.51,4.17,6.5,2.11,2.51,4.24,5,6.39,7.49.69.8,1.46,1.55,2.26,2.4Z"/>
    <path class="cls-1" d="m424.02,118.27c-.87,2.18-2.17,3.79-3.69,5.23-1.2,1.14-2.67,1.21-3.94.15-1.83-1.51-3.05-3.51-3.2-5.84-.21-3.28-.17-6.58-.02-9.86.04-.99.67-2.02,1.27-2.88.26-.38,1.14-.58,1.65-.47.72.15.84.89.62,1.56-.9,2.72-.52,5.52-.51,8.3,0,1.98.31,3.92,1.24,5.7.68,1.3,1.39,1.51,2.59.67.67-.46,1.24-1.07,1.83-1.65.55-.53,1.1-1.02,2.17-.91Z"/>
    <path class="cls-1" d="m213.53,90.57c1.65.77,1.92,1.83,1.85,3.03-.17,2.78-.4,5.56-.54,8.34-.06,1.26-.03,2.53.06,3.79.04.58.35,1.14.61,1.96,1.33-1.06,2.43-1.93,3.53-2.81-.33,1.64-1.1,3.06-2.14,4.23-1.39,1.56-3.49,1.03-3.96-1-.44-1.9-.72-3.88-.69-5.82.05-3.16.38-6.31.66-9.47.06-.7.37-1.38.62-2.24Z"/>
    <path class="cls-1" d="m269.35,95.37c.73-.04,1.16.5,1.12,1.16-.11,1.66.96,2.55,2.05,3.41,1.49,1.17,3.04,2.27,4.57,3.39,1.48,1.08,2.97,2.14,4.43,3.24.35.26.71.57.92.94.19.34.36.91.2,1.15-.19.28-.76.44-1.14.41-.41-.03-.82-.3-1.2-.52-2.74-1.58-5.52-3.09-8.17-4.81-1.25-.81-2.3-1.98-3.29-3.12-.95-1.1-1.09-2.53-.93-3.95.09-.77.49-1.29,1.44-1.3Z"/>
    <path class="cls-1" d="m373.38,116.99c-.16,1.41-1.14,1.8-1.94,2.17-1.54.7-3.14,1.39-4.79,1.76-3.64.82-7.31,1.48-10.99,2.1-.76.13-1.62-.13-2.39-.37-.36-.11-.72-.53-.91-.89-.42-.85.03-1.49.98-1.5,4.71-.05,9.28-1.12,13.86-2.05,1.67-.34,3.29-.9,4.94-1.31.33-.08.72.05,1.24.1Z"/>
    <path class="cls-1" d="m436.31,118.33c-1.35-.6-2.01-1.24-2.4-2.12-.7-1.55-1.41-3.06-1.5-4.84-.15-2.71-.56-5.4-.82-8.1-.07-.75-.08-1.53.07-2.26.08-.42.53-1.07.82-1.08.55-.02,1.33.2,1.63.6.43.57.63,1.38.72,2.12.19,1.63.28,3.27.36,4.91.14,2.9.32,5.79,1.11,8.6.16.56.02,1.19.02,2.16Z"/>
    <path class="cls-1" d="m363.15,110.69c-.55-.69.14-1.14.35-1.69.6-1.54.14-2.33-1.52-2.36-2.54-.05-4.71.66-6.08,3.05-.23.39-.89.76-1.34.75-.76-.02-.91-.74-.95-1.4-.11-1.72,1.63-4.37,3.52-4.98,1.73-.56,3.55-.93,5.41-.61,1.79.31,3.18,1.6,3.36,3.14.19,1.6-.85,3.45-2.37,4.18-.09.04-.23-.04-.37-.07Z"/>
    <path class="cls-1" d="m130.55,29.28c-.34,1.83-.77,3.48-.93,5.16-.1,1.1.08,2.26.32,3.36.31,1.4,1.24,1.69,2.37.81.83-.65,1.58-1.41,2.46-2.04-.48,1.6-1.4,2.88-2.63,3.95-1.65,1.44-3.76.91-4.33-1.38-.78-3.17-.77-6.24.37-9.29.54-1.43.89-1.48,2.36-.57Z"/>
    <path class="cls-1" d="m178.7,26.02c-.24.3-.42.76-.73.87-1.06.39-2.15.81-3.26.93-2.36.26-4.51,1.15-6.7,1.96-.69.25-1.45.41-2.18.41-.43,0-1.16-.33-1.22-.62-.11-.54.04-1.23.32-1.72.21-.37.78-.65,1.24-.75,2.78-.58,5.55-1.17,8.35-1.61,1.28-.2,2.61-.03,3.92-.03.09.18.17.37.26.55Z"/>
    <path class="cls-1" d="m416.38,91.44c-1.08-1.04-1.88-1.89-2.22-3.1-.67-2.39-1.83-4.56-3.18-6.63-.25-.39-.4-.94-.38-1.41.03-.72.35-1.38,1.16-1.54.78-.15,1.3.25,1.72.9,2.11,3.29,2.72,7.02,3.18,10.8.03.22-.13.46-.29.99Z"/>
    <path class="cls-1" d="m362.52,85.62c.01-.84.37-1.49,1.07-1.56.82-.08,2.59.98,2.74,1.7.06.28.05.72-.11.88-.9.81-.65,1.85-.67,2.84-.03,1.58-.03,3.16-.1,4.74-.02.33-.28.89-.47.91-.36.04-.91-.14-1.1-.42-.35-.49-.56-1.11-.71-1.71-.17-.67-.24-1.37-.29-2.06-.12-1.64-.21-3.28-.34-5.31Z"/>
    <path class="cls-1" d="m403.03,87.75c-1.17-.62-1.71-1.42-1.75-2.36-.11-2.51-.12-5.02-.06-7.53.03-.97.71-1.43,1.49-1.31.92.14,2.11,1.56,1.75,2.36-1.06,2.28-.84,4.67-.91,7.05-.02.56-.31,1.11-.52,1.8Z"/>
    <path class="cls-1" d="m279.12,92.96c-1.38-1.32-2.24-2.98-2.9-4.75-.42-1.12-.81-2.26-1.19-3.39-.12-.35-.31-.75-.25-1.09.09-.45.29-.99.63-1.23.2-.15.87.09,1.13.35.48.47.95,1.04,1.2,1.66.4.99.62,2.06.89,3.1.28,1.09.57,2.18.8,3.28.13.63.15,1.29.21,1.94l-.53.13Z"/>
    <path class="cls-1" d="m270.06,83.38c.68.38,1.61.79,2.41,1.38.51.38.56,1.14-.14,1.37-.99.32-1,.99-.98,1.77.03,1.08.07,2.15,0,3.23-.02.37-.34.73-.52,1.09-.41-.23-.83-.44-1.21-.71-.13-.09-.21-.33-.23-.51-.26-2.13-.53-4.25-.72-6.39-.06-.7.32-1.21,1.39-1.24Z"/>
    <path class="cls-1" d="m373.3,92.94c-.42-.91-.93-1.51-.93-2.11,0-1.57-.81-2.74-1.56-3.99-.37-.62-.71-1.38-.72-2.09-.02-1.22.96-1.63,1.94-.88.97.74,1.61,1.68,1.98,2.91.53,1.77.29,3.49.06,5.24-.03.2-.29.36-.76.92Z"/>
    <path class="cls-1" d="m143.67,32.64c-1.57.34-2.03-.99-2.47-1.87-1.05-2.06-2-4.22-.98-6.61,1.01-.12,1.45.43,1.66,1.12.66,2.24,1.26,4.5,1.87,6.76.04.16-.04.36-.07.6Z"/>
    <path class="cls-1" d="m43.26,13.55c-1.98-1.42-3.28-3.35-3.96-5.7-.3-1.03.49-1.72,1.32-2.78.51,1.62.88,2.95,1.37,4.25.5,1.34,1.12,2.64,1.68,3.95-.14.09-.27.19-.41.28Z"/>
    <path class="cls-1" d="m458.46,101.17c.17.2.66.54.74.95.16.87-.61,1.63-1.42,1.57-.76-.06-.84-.63-.85-1.21-.01-.91.35-1.3,1.53-1.31Z"/>
  </g>
</svg>