<?xml version="1.0" encoding="UTF-8"?>
<svg id="_レイヤー_2" data-name="レイヤー 2" xmlns="http://www.w3.org/2000/svg" viewBox="0 0 125.71 47.65">
  <defs>
    <style>
      .cls-1 {
        fill: #a6aa8f;
      }

      .cls-2 {
        fill: #bea072;
      }

      .cls-3 {
        fill: none;
        stroke: #bea072;
        stroke-linecap: round;
        stroke-miterlimit: 10;
        stroke-width: 1.04px;
      }
    </style>
  </defs>
  <g id="PC文字">
    <g>
      <path class="cls-1" d="m16.24,25.66c2.08,5.8,5.44,14.36,6.4,16.8.84,2.08,1.16,2.28,3.28,3,.88.32,1.2.8,1.2,1.2,0,.28-.44.48-1.04.48-1.96,0-3.72-.2-5.72-.2-1.76,0-1.88.12-3.2.12-.8,0-1.16-.32-1.16-.6,0-.32.2-.76.96-1,1.8-.56,1.92-.92,1.56-2.24-.28-1.12-1.2-3.44-1.68-4.64-.08-.24-.52-.56-1.04-.6-.76,0-5.6-.04-6.8.08-.2,0-.56.36-.64.56-.52,1.52-1.52,4.36-1.52,5.16,0,.56.2,1.12,2,1.68.52.16.92.36.92.72s-.44.88-1.4.88c-.44,0-2.04-.12-3.24-.12-1.36,0-2.2.2-3.76.2-.76,0-1.36-.2-1.36-.64,0-.4.32-.8,1.2-1.04,1.92-.52,2.6-1.24,3.12-2.4,1.24-2.56,5.24-12.64,7.28-18,.08-.28.2-.72.24-1.08,0-.12.2-.4.28-.44.48-.32,1.28-.88,1.68-1.24.24-.24.68-.44.84-.44.44,0,.64,1.12,1.6,3.8Zm-.4,9.76c-.52-2-2.6-7.2-2.92-7.84-.12-.24-.4-.16-.52,0-.8,2.08-2.04,5.52-2.84,7.84-.04.16.04.4.32.44.68.04,5.04.08,5.76,0,.12,0,.28-.28.2-.44Z"/>
      <path class="cls-1" d="m48.12,31.54c-.32.36-1.52,1.08-2.28,1.44-.08.04,0,.44.2.52,2.76.84,5.16,3.04,5.16,6.08,0,3.88-2.64,5.84-4.96,6.72-1.64.64-3.84.88-5.48.88-2.52,0-4.72-.16-6.32-.2-1.36-.04-2.36.08-3.12.08-.6,0-1.32-.24-1.32-.72,0-.52.48-.8,1.52-1.04,1.64-.36,2.44-.52,2.6-2.56.08-.72.2-3,.2-9.4,0-2.4,0-6.04-.12-7.2-.12-1.32-.44-1.72-2.64-2.04-.44-.04-1-.36-1-.84,0-.44.6-.68,1.52-.68h2.28c1.44,0,4.12-.28,6.8-.28,2.92,0,5,.76,6.04,1.6,1.4,1.08,2.16,2.68,2.16,4.32,0,1.44-.48,2.48-1.24,3.32Zm-7.6,3.12c-.52,0-1.6.12-1.76.2-.08.04-.44.44-.52.96-.16.8-.12,6.08.16,7.36.28,1.4,2.44,2.36,3.2,2.36,1.96,0,3.96-1.56,4.32-2.32.44-.96.8-2.08.8-3.24,0-3.76-2.96-5.32-6.2-5.32Zm-.64-10.68c-.44,0-1.08.12-1.24.2-.16.08-.36.2-.4.6-.12,2.68-.12,7.08,0,7.84.08.28.56.48,1.12.48,1.96,0,3.76-.4,4.28-.72.4-.2,1.68-1.32,1.68-3.8s-1.6-4.6-5.44-4.6Z"/>
      <path class="cls-1" d="m72.72,22.38c1.24,0,3.32.2,4.64.2,1.76,0,3.08-.12,3.64-.12.92,0,1.32.32,1.32.72s-.6.8-1.2.92c-2.04.44-2.32.8-2.48,2.96-.16,2.16-.12,5.92.04,9.68.2,3.88,1.04,5.16,2.04,6.24,1.04,1.12,3.24,2.04,5.16,2.04,3.36,0,6.12-1.84,6.72-6.84.24-1.72.32-6.2.32-8.52,0-4.52-.28-5.04-2.92-5.56-.8-.16-1.16-.56-1.16-.92,0-.32.44-.72,1.32-.72.8,0,1.56.12,3.08.12,1.44,0,3.68-.2,4.6-.2.56,0,1.16.16,1.16.68,0,.32-.4.76-1.2,1-2,.52-2.2.8-2.44,2.76-.08.48-.28,5.08-.44,8.16-.32,6-1.48,8.48-3.44,10.36-1.64,1.6-4.28,2.32-6.76,2.32-3,0-6.28-1.24-7.88-3.32-2.24-2.96-2.2-6.92-2.2-9.72,0-3.96-.16-6.72-.24-8.32-.08-1.64-.72-1.84-2.24-2.28-.8-.2-1.16-.52-1.16-.96,0-.56.6-.68,1.72-.68Z"/>
      <path class="cls-1" d="m120.56,22.58c2.24,0,3-.16,3.36-.48.44-.4.72-.68.96-.68.16,0,.84.48.84.8,0,.28-.48,2.64-.48,5.32,0,.64-.4,1.2-.92,1.2-.44,0-.68-.6-.76-.96-.56-2.56-1.36-2.92-2.52-3.04-.6-.08-2.28-.16-5.6-.16-.12,0-.44.28-.48.56-.08,1-.2,5.92-.2,8.44s-.04,5.96.12,8.12c.2,2.88.88,3,2.84,3.76.72.28,1.24.48,1.24.96,0,.4-.52.72-1.32.72-.4,0-3.52-.2-5.92-.2-2.16,0-3.36.12-4.44.12-.84,0-1.28-.32-1.28-.8,0-.32.4-.64,1.16-.88,2.76-.72,3.44-.88,3.44-3.56,0-.84.12-5.12.12-10.96v-5.36c0-.48-.28-.92-.4-.92-1,0-4.8-.04-5.4-.04-.68,0-1.76.44-2.72,3-.24.68-.6,1.12-.92,1.12-.68,0-.88-.6-.8-1.56.04-1.24.36-3,.28-4.92-.04-.4.64-.8.88-.8.12,0,.36.16.64.36.6.56,1.08.72,2.24.76,1.64.08,1.36.08,2.64.08h13.4Z"/>
    </g>
    <g>
      <line class="cls-3" x1="66.27" y1=".52" x2="66.27" y2="39.48"/>
      <path class="cls-2" d="m67.14,39.01c0,3.48-1.94,6.14-3.24,7.22-1.32,1.11-2.78,1.26-3.4,1.26-1.16,0-2.81-.96-2.81-3.74,0-1.69.65-4.12,2-5.96,1.38-1.84,3.16-2.66,4.45-2.66,2.05,0,3,2.16,3,3.89Zm-4.99-1.17c-1.05,1.84-2.11,5.32-2.11,7.36,0,1.23.38,1.64.7,1.64.4,0,.86-.38,1.46-1.23,1.19-1.72,2.78-6.43,2.78-8.65,0-.91-.38-1.23-.65-1.23-.57,0-1.38.73-2.19,2.1Z"/>
    </g>
  </g>
</svg>