<?xml version="1.0" encoding="UTF-8"?>
<svg id="_レイヤー_2" data-name="レイヤー 2" xmlns="http://www.w3.org/2000/svg" viewBox="0 0 116.53 70.65">
  <defs>
    <style>
      .cls-1 {
        fill: #a6aa8f;
      }

      .cls-2 {
        stroke-linecap: round;
      }

      .cls-2, .cls-3 {
        fill: none;
        stroke: #a6aa8f;
        stroke-miterlimit: 10;
      }
    </style>
  </defs>
  <g id="PC文字">
    <g>
      <line class="cls-3" x1="46.49" y1=".5" x2="46.49" y2="49.3"/>
      <path class="cls-1" d="m47.66,48.71c0,4.35-2.63,7.68-4.39,9.04-1.79,1.39-3.77,1.57-4.61,1.57-1.57,0-3.81-1.21-3.81-4.68,0-2.12.88-5.16,2.71-7.46,1.87-2.31,4.28-3.33,6.04-3.33,2.78,0,4.06,2.71,4.06,4.87Zm-6.77-1.46c-1.43,2.31-2.85,6.66-2.85,9.22,0,1.54.51,2.05.95,2.05.55,0,1.17-.48,1.98-1.54,1.61-2.16,3.77-8.05,3.77-10.83,0-1.13-.51-1.54-.88-1.54-.77,0-1.87.91-2.96,2.63Z"/>
    </g>
    <g>
      <line class="cls-2" x1="69.72" y1=".5" x2="69.72" y2="49.3"/>
      <path class="cls-1" d="m70.9,48.71c0,4.35-2.63,7.68-4.39,9.04-1.79,1.39-3.77,1.57-4.61,1.57-1.57,0-3.81-1.21-3.81-4.68,0-2.12.88-5.16,2.71-7.46,1.87-2.31,4.28-3.33,6.04-3.33,2.78,0,4.06,2.71,4.06,4.87Zm-6.77-1.46c-1.43,2.31-2.85,6.66-2.85,9.22,0,1.54.51,2.05.95,2.05.55,0,1.17-.48,1.98-1.54,1.61-2.16,3.77-8.05,3.77-10.83,0-1.13-.51-1.54-.88-1.54-.77,0-1.87.91-2.96,2.63Z"/>
    </g>
    <g>
      <ellipse class="cls-1" cx="114.3" cy="48.7" rx="2.23" ry="2.27"/>
      <ellipse class="cls-1" cx="114.3" cy="37.36" rx="2.23" ry="2.27"/>
      <path class="cls-1" d="m106.82,44.73c0,8.4-5.66,17.89-14.02,22.86-3.25,1.96-6.26,3.06-7.76,3.06-.96,0-1.5-.49-1.5-.98,0-.37.3-.74,1.32-1.23,10.53-5.02,16.18-14.03,16.18-23.59,0-5.02-1.93-12.01-7.58-12.01-3.97,0-5.9,4.11-5.9,7.54,0,5.7,3.25,8.64,7.34,8.64,1.26,0,2.53-.74,3.01-1.04.18-.12.66.25.66.43,0,.31-.06.86-.18,1.23,0,.06-.6.86-.96,1.04-1.74,1.23-4.39,2.33-6.08,2.33-5.05,0-8.84-4.47-8.84-9.93,0-3.8,1.86-8.64,6.5-11.34,1.8-.98,3.91-1.65,6.38-1.65,7.52,0,11.43,7.54,11.43,14.65Z"/>
    </g>
    <path class="cls-1" d="m15.19,37.5c1.08.99,1.84,3.58,1.84,4.73,0,2.09-.22,4.4-.22,10.57,0,1.82.92,2.7,1.95,2.7.43,0,1.41-.28,1.84-.5.22-.11.49.44.49.88,0,.22-.38,1.27-.49,1.43-.81,1.1-2.11,1.98-3.95,1.98-1.41,0-3.14-.55-3.84-3.41,0-.06-.43-.33-.54-.28-1.14.88-2.92,1.93-4.16,2.64-.97.55-1.89.83-2.87.83-1.62,0-5.14-2.04-5.14-6.5,0-1.32.43-2.15.81-2.64.81-1.05,1.95-1.54,2.16-1.6,5.46-1.32,8-1.98,9.19-2.64.27-.11.59-.5.59-.83v-2.09c0-.61,0-.94-.16-1.43-.76-2.15-3.08-3.08-4.76-3.08-1.14,0-2.22.5-2.43.72-.22.28-.43,1.05-.54,2.7-.05.61-.27,1.05-.49,1.21-.27.22-1.24.44-1.57.44-.43,0-1.78-.06-2.27-.28-.27-.11-.65-.66-.65-.88,0-.94,1.57-2.64,3.89-4.29,2.05-1.38,4.54-2.48,6.38-2.48,2,0,3.35.61,4.92,2.09Zm-2.97,16.02c.16-.39.38-.99.43-1.65l.05-3.52c0-.22-.27-.33-.43-.33-1.57.28-4.7,1.05-5.78,1.43-1.51.55-2,1.16-2,2.53,0,1.76,1.62,3.41,3.62,3.41,1.19,0,2.92-.72,4.11-1.87Z"/>
  </g>
</svg>