<?xml version="1.0" encoding="UTF-8"?>
<svg id="_レイヤー_2" data-name="レイヤー 2" xmlns="http://www.w3.org/2000/svg" viewBox="0 0 167.6 155.25">
  <defs>
    <style>
      .cls-1, .cls-2, .cls-3, .cls-4, .cls-5, .cls-6 {
        stroke: #7f7f80;
      }

      .cls-1, .cls-2, .cls-3, .cls-5, .cls-6 {
        stroke-linejoin: round;
        stroke-width: .88px;
      }

      .cls-1, .cls-6 {
        fill: none;
      }

      .cls-7 {
        fill: #323333;
      }

      .cls-8 {
        fill: #c4a672;
      }

      .cls-9, .cls-3 {
        fill: #4d4d4d;
      }

      .cls-2, .cls-4 {
        fill: #828282;
      }

      .cls-4 {
        stroke-miterlimit: 10;
      }

      .cls-5 {
        fill: #7f7f80;
      }

      .cls-5, .cls-6 {
        stroke-linecap: round;
      }
    </style>
  </defs>
  <g id="PC文字">
    <g id="color_2" data-name="color 2">
      <path id="Vector" class="cls-8" d="m68.9,55.53c-2.55,2.13-10.45,3.63-17.86,22.34l-10.91-9.81c-5.04,2.56-8.94,6.9-10.95,12.18l16.41,14.75c1.9,1.7,4.4,2.58,6.95,2.44,2.55-.14,4.94-1.28,6.64-3.18l6.8-7.57-2.7,17.92-11.06,12.33c2.78,4.87,7.05,8.72,12.2,10.96l11.71-13.03c1.73-1.93,2.96-4.26,3.57-6.78,2.55-10.7,1.68-29.57,3.33-45.83-6.61-1.23-9.06-2.73-14.12-6.71Z"/>
    </g>
    <g id="color_1" data-name="color 1">
      <path id="Vector_2" data-name="Vector 2" class="cls-4" d="m159.18,56.28l-18.99,20.04,7.53-33.15,18.99-20.04-7.53,33.15Z"/>
      <path id="Vector_3" data-name="Vector 3" class="cls-7" d="m98.97,48.94c-.25-.17-.68-.02-1.25.38l1.32,1.08c.22-.77.22-1.3-.07-1.47Z"/>
      <path id="Vector_4" data-name="Vector 4" class="cls-7" d="m87.21,59.18c-.35.9-.3,1.66-.03,1.83.27.18,1.05,0,1.58-.68l-1.55-1.15Z"/>
      <path id="Vector_5" data-name="Vector 5" class="cls-7" d="m94.79,49.67c-.25-.17-.68-.02-1.25.38l1.32,1.08c.21-.75.2-1.28-.07-1.47Z"/>
      <path id="Vector_6" data-name="Vector 6" class="cls-9" d="m55.82,112.83l-3.68,4.1c2.78,4.87,7.05,8.72,12.2,10.96l3.85-4.28c-5.06-2.35-9.35-6.08-12.36-10.78h0Z"/>
      <path id="Vector_7" data-name="Vector 7" class="cls-7" d="m77.01,52.4l6.16,9.58,1.63-2.97-7.8-6.61Z"/>
      <path id="Vector_8" data-name="Vector 8" class="cls-7" d="m83.32,28.24l.85,1.83.47-1.25-1.32-.58Z"/>
      <path id="Vector_9" data-name="Vector 9" class="cls-7" d="m78.91,72.29l-12.95,14.39-1.32,8.83,14.26-23.22Z"/>
      <path id="Vector_10" data-name="Vector 10" class="cls-9" d="m47.45,127.66c-1.08,1.17-2.2,2.33-3.35,3.53-.92,5.41-.48,17.84,1.27,23.62,4.65-7.73,6.33-12.63,8.68-20.59-2.53-1.83-4.76-4.04-6.6-6.56h0Z"/>
      <path id="Vector_11" data-name="Vector 11" class="cls-9" d="m29.11,63.76c-.8-.8-1.72-1.78-2.93-3.1-9.43,1.33-19.81,4.48-24.21,6.56,6.71,2.54,13.89,3.56,21.04,3l.37.33c1.57-2.53,3.5-4.82,5.73-6.8h0Z"/>
      <path id="Vector_12" data-name="Vector 12" class="cls-9" d="m43.72,71.21l-3.6-3.24c-5.03,2.56-8.93,6.9-10.95,12.18l3.65,3.28c2.52-4.94,6.27-9.14,10.89-12.22h0Z"/>
      <path id="Vector_13" data-name="Vector 13" class="cls-7" d="m90.65,17.4c.07-.4,0-.82-.21-1.17-.21-.35-.53-.62-.92-.76.25-.23.43-.53.51-.86.08-.33.07-.68-.05-1-.11-.32-.31-.6-.58-.81-.27-.21-.59-.33-.93-.36.14-.29.19-.62.16-.94-.04-.32-.16-.63-.36-.88-.2-.26-.47-.45-.77-.56-.3-.11-.63-.14-.95-.08.04-.32,0-.65-.15-.95s-.35-.55-.63-.73c-.27-.18-.59-.28-.92-.28-.33,0-.65.08-.93.24-.06-.33-.21-.64-.44-.89s-.53-.42-.85-.5c-.33-.08-.67-.07-.99.04-.32.11-.6.31-.81.57-.16-.32-.41-.58-.71-.76-.31-.18-.66-.27-1.01-.25-.36.02-.7.14-.99.35-.29.21-.51.5-.63.83-.2-.21-.45-.37-.73-.46-.28-.09-.58-.11-.86-.05-.29.06-.56.18-.78.37-.23.19-.4.43-.51.7.03-.42-.06-.83-.26-1.2-.2-.37-.5-.67-.87-.87-.37-.2-.78-.29-1.2-.27-.42.03-.82.17-1.15.42-.18-.43-.49-.79-.89-1.03-.39-.24-.85-.36-1.32-.34-.46.02-.91.19-1.28.47-.37.28-.64.67-.78,1.12-.38-.23-.82-.34-1.27-.31-.44.03-.87.19-1.22.47-.35.28-.6.66-.73,1.08-.13.43-.12.88.02,1.31-.45.05-.87.24-1.2.53-.34.3-.57.69-.68,1.13-.1.44-.07.89.09,1.31.17.42.46.77.83,1.02-.35.28-.61.67-.73,1.11-.12.44-.11.9.05,1.32.15.43.43.79.8,1.05.37.26.81.4,1.26.4-.09.43-.05.89.13,1.29.17.41.47.75.84.99.37.24.81.35,1.26.34.44-.02.87-.17,1.22-.44.14.36.38.67.68.91.31.24.67.38,1.05.43-.07.25-.08.51-.04.77.04.25.14.5.29.71.15.21.34.39.57.52.22.13.47.2.73.22-.14.29-.19.62-.16.95.04.32.16.63.37.89.2.25.47.45.78.56.31.11.64.13.96.06-.04.32.02.65.15.95.14.3.36.55.63.72.27.18.59.27.92.28.33,0,.65-.08.93-.25.06.33.21.64.44.89.23.25.53.42.86.5.33.08.67.07.99-.04.32-.11.6-.31.81-.58.21.3.48.55.8.74.32.19.67.3,1.03.34.56-1.01.94-2.11,1.12-3.24.19-1.16-.03-2.35-.61-3.37-2.48-.82-1.37-3.73.32-2.6.8.55,1.1.51,1.17-.02,0-.15.05-.3.13-.43.08-.13.2-.23.34-.3.15.31.39.57.68.75.3.18.64.26.98.25.35-.02.68-.13.96-.34.28-.2.49-.49.61-.81.16.17.36.31.57.4.21.09.45.14.68.15.23,0,.47-.04.68-.13.22-.09.41-.22.58-.39.41.97.73,1.98.93,3.02.25-.14.46-.34.62-.58.16-.24.25-.52.27-.8.02-.29-.02-.57-.14-.84-.11-.26-.29-.5-.52-.67.25-.13.47-.31.64-.54.17-.23.28-.49.33-.76h0Z"/>
      <path id="Vector_14" data-name="Vector 14" class="cls-9" d="m127.04,12.63c-.11-.68-.42-1.3-.89-1.8-.47-.5-1.08-.85-1.74-1-.67-.15-1.37-.11-2.01.13-.64.24-1.2.67-1.59,1.22-.4.56-.62,1.22-.64,1.9-.02.68.16,1.36.52,1.94.36.58.89,1.04,1.51,1.32.62.28,1.32.37,1.99.26.9-.15,1.71-.66,2.25-1.4.53-.75.75-1.67.6-2.58h0Z"/>
      <path id="Vector_15" data-name="Vector 15" class="cls-9" d="m23.61,90.31l-7.81,2.51,3.23,19.06,4.59-21.58Z"/>
      <path id="Vector_16" data-name="Vector 16" class="cls-7" d="m125.06,65.7h0s0,0,0,0Z"/>
      <path id="Vector_17" data-name="Vector 17" class="cls-7" d="m132.12,57.35l-4.48,4.12c1.57.33,3.1.85,4.55,1.55.61.26,1.18.63,1.67,1.08.68.78-2.98-.33-4.78-.53h-.02c.36.19.7.44.98.73.59.68-3.93-.85-4.33-.57,1.73.78,4.41,2.27,5.06,3.42.77,1.38-3.17-1.37-5.71-1.45,1.62.75,3.38,1.8,4.02,2.97.87,1.58-2.27-1.32-6-1.43h-.02c3.57,2.17,5.23,3.95.17,1.75-.93-.42-1.92-.67-2.93-.77l-10.18,9.31,30.06-1.17,4.41-19.46-12.46.45Z"/>
    </g>
    <g id="outlines">
      <path id="Vector_18" data-name="Vector 18" class="cls-1" d="m159.18,56.28l-18.99,20.04,7.53-33.15,18.99-20.04-7.53,33.15Z"/>
      <path id="Vector_19" data-name="Vector 19" class="cls-2" d="m132.12,57.35l-4.48,4.12c1.57.33,3.1.85,4.55,1.55.61.26,1.18.63,1.67,1.08.68.78-2.98-.33-4.78-.53h-.02c.36.19.7.44.98.73.59.68-3.93-.85-4.33-.57,1.73.78,4.41,2.27,5.06,3.42.77,1.38-3.17-1.37-5.71-1.45,1.62.75,3.38,1.8,4.02,2.97.87,1.58-2.27-1.32-6-1.43h-.02c3.57,2.17,5.23,3.95.17,1.75-.93-.42-1.92-.67-2.93-.77l-10.18,9.31,30.06-1.17,4.41-19.46-12.46.45Z"/>
      <path id="Vector_20" data-name="Vector 20" class="cls-3" d="m90.65,17.4c.07-.4,0-.82-.21-1.17-.21-.35-.53-.62-.92-.76.25-.23.43-.53.51-.86.08-.33.07-.68-.05-1-.11-.32-.31-.6-.58-.81-.27-.21-.59-.33-.93-.36.14-.29.19-.62.16-.94-.04-.32-.16-.63-.36-.88-.2-.26-.47-.45-.77-.56-.3-.11-.63-.14-.95-.08.04-.32,0-.65-.15-.95s-.35-.55-.63-.73c-.27-.18-.59-.28-.92-.28-.33,0-.65.08-.93.24-.06-.33-.21-.64-.44-.89s-.53-.42-.85-.5c-.33-.08-.67-.07-.99.04-.32.11-.6.31-.81.57-.16-.32-.41-.58-.71-.76-.31-.18-.66-.27-1.01-.25-.36.02-.7.14-.99.35-.29.21-.51.5-.63.83-.2-.21-.45-.37-.73-.46-.28-.09-.58-.11-.86-.05-.29.06-.56.18-.78.37-.23.19-.4.43-.51.7.03-.42-.06-.83-.26-1.2-.2-.37-.5-.67-.87-.87-.37-.2-.78-.29-1.2-.27-.42.03-.82.17-1.15.42-.18-.43-.49-.79-.89-1.03-.39-.24-.85-.36-1.32-.34-.46.02-.91.19-1.28.47-.37.28-.64.67-.78,1.12-.38-.23-.82-.34-1.27-.31-.44.03-.87.19-1.22.47-.35.28-.6.66-.73,1.08-.13.43-.12.88.02,1.31-.45.05-.87.24-1.2.53-.34.3-.57.69-.68,1.13-.1.44-.07.89.09,1.31.17.42.46.77.83,1.02-.35.28-.61.67-.73,1.11-.12.44-.11.9.05,1.32.15.43.43.79.8,1.05.37.26.81.4,1.26.4-.09.43-.05.89.13,1.29.17.41.47.75.84.99.37.24.81.35,1.26.34.44-.02.87-.17,1.22-.44.14.36.38.67.68.91.31.24.67.38,1.05.43-.07.25-.08.51-.04.77.04.25.14.5.29.71.15.21.34.39.57.52.22.13.47.2.73.22-.14.29-.19.62-.16.95.04.32.16.63.37.89.2.25.47.45.78.56.31.11.64.13.96.06-.04.32.02.65.15.95.14.3.36.55.63.72.27.18.59.27.92.28.33,0,.65-.08.93-.25.06.33.21.64.44.89.23.25.53.42.86.5.33.08.67.07.99-.04.32-.11.6-.31.81-.58.21.3.48.55.8.74.32.19.67.3,1.03.34.56-1.01.94-2.11,1.12-3.24.19-1.16-.03-2.35-.61-3.37-2.48-.82-1.37-3.73.32-2.6.8.55,1.1.51,1.17-.02,0-.15.05-.3.13-.43.08-.13.2-.23.34-.3.15.31.39.57.68.75.3.18.64.26.98.25.35-.02.68-.13.96-.34.28-.2.49-.49.61-.81.16.17.36.31.57.4.21.09.45.14.68.15.23,0,.47-.04.68-.13.22-.09.41-.22.58-.39.41.97.73,1.98.93,3.02.25-.14.46-.34.62-.58.16-.24.25-.52.27-.8.02-.29-.02-.57-.14-.84-.11-.26-.29-.5-.52-.67.25-.13.47-.31.64-.54.17-.23.28-.49.33-.76h0Z"/>
      <path id="Vector_21" data-name="Vector 21" class="cls-6" d="m89.14,27.71l49.73-8.36"/>
      <path id="Vector_22" data-name="Vector 22" class="cls-6" d="m7.54,41.41l72.47-12.16"/>
      <path id="Vector_23" data-name="Vector 23" class="cls-6" d="m84.07,35.54l14.91,13.39"/>
      <path id="Vector_24" data-name="Vector 24" class="cls-6" d="m99.05,50.4c.2-.75.2-1.28-.07-1.47-.25-.17-.7-.02-1.27.38-.85.67-1.61,1.43-2.28,2.28"/>
      <path id="Vector_25" data-name="Vector 25" class="cls-6" d="m36.74,70.15c-5.63-4.48-6.1-4.61-10.56-9.5-9.43,1.33-19.81,4.48-24.21,6.56,6.71,2.54,13.9,3.56,21.06,3l7.65,6.88"/>
      <path id="Vector_26" data-name="Vector 26" class="cls-6" d="m79.09,35.58l15.71,14.09"/>
      <path id="Vector_27" data-name="Vector 27" class="cls-6" d="m87.17,61.02l-10.16-8.61,6.15,9.58"/>
      <path id="Vector_28" data-name="Vector 28" class="cls-6" d="m123.44,62.89c.61.13,6.23,2.1,7.41,4.2.79,1.4-3.2-1.38-5.78-1.47"/>
      <path id="Vector_29" data-name="Vector 29" class="cls-6" d="m122.89,64.73c1.57.57,5.28,2.13,6.25,3.9.88,1.6-2.28-1.33-6.06-1.45"/>
      <path id="Vector_30" data-name="Vector 30" class="cls-6" d="m122.46,66.83c3.97,2.32,6.15,4.46.77,2.13-2.78-1.2-23.06-1.82-23.06-1.82-1.78-.18-3.48-.83-4.93-1.88l-8.03-6.1"/>
      <path id="Vector_31" data-name="Vector 31" class="cls-6" d="m93.54,50.05l8.16,7.25s20.46,3.83,22.02,4.28c1.57.45,5.32,1.4,6.41,2.65.58.67-2.63-.48-4.58-.58"/>
      <path id="Vector_32" data-name="Vector 32" class="cls-6" d="m94.87,51.14c.2-.75.2-1.28-.07-1.47-.25-.17-.7-.02-1.27.38-2.31,1.64-5.73,6.73-6.45,9.51-.18.68-.14,1.3.08,1.45.26.18,1.02-.03,1.58-.67"/>
      <path id="Vector_33" data-name="Vector 33" class="cls-6" d="m61.72,66.45c4.02.17,7.98-1.06,11.2-3.48"/>
      <path id="Vector_34" data-name="Vector 34" class="cls-6" d="m83.02,62.23l1.78-3.22"/>
      <path id="Vector_35" data-name="Vector 35" class="cls-6" d="m83.81,33.96c-1.1,1.6-3.12.9-5.9-1.78"/>
      <path id="Vector_36" data-name="Vector 36" class="cls-6" d="m65.96,86.71l12.95-14.41-14.26,23.22"/>
      <path id="Vector_37" data-name="Vector 37" class="cls-6" d="m45.59,94.97c.94.84,2.04,1.5,3.23,1.92,1.19.42,2.46.6,3.72.53,1.26-.07,2.5-.38,3.64-.93,1.14-.55,2.16-1.31,3.01-2.25l6.78-7.53-2.68,17.89-11.06,12.33c2.78,4.87,7.05,8.72,12.2,10.96l11.71-13.05c1.73-1.93,2.96-4.26,3.57-6.78,2.55-10.7,1.68-29.59,3.33-45.83-6.63-1.23-9.08-2.73-14.13-6.71-3.26,2.38-10.54,4.15-17.86,22.35l-10.91-9.81c-5.03,2.56-8.93,6.9-10.95,12.18l16.41,14.74Z"/>
      <path id="Vector_38" data-name="Vector 38" class="cls-6" d="m84.62,28.8c-.44-.16-.87-.36-1.29-.57l.85,1.84"/>
      <path id="Vector_39" data-name="Vector 39" class="cls-6" d="m85.31,41.16c-1.23-3.54-2.25-8.96-.69-12.35,6.31,2.31,5.77-5.86,3.93-10.19m-19.65,36.89c.71-2.23,1.19-4.52,1.43-6.85.42-3.58,1.46-7.05,3.07-10.28,1.57-3.3,5.17-6.34,7.01-9.85.55-.96.9-2.03,1.03-3.13.19-1.16-.03-2.35-.61-3.37-2.48-.82-1.36-3.74.32-2.6.8.55,1.12.52,1.17-.02.05-.28.1-.55.17-.8"/>
      <path id="Vector_40" data-name="Vector 40" class="cls-6" d="m55.9,112.83c3.01,4.69,7.3,8.43,12.36,10.78"/>
      <path id="Vector_41" data-name="Vector 41" class="cls-6" d="m32.81,83.44c2.8-5.09,6.3-9.26,10.9-12.16"/>
      <path id="Vector_42" data-name="Vector 42" class="cls-6" d="m54.2,119.94c-3.52,4.3-6.67,7.67-10.1,11.25-.92,5.41-.48,17.84,1.27,23.62,4.65-7.73,6.33-12.65,8.68-20.61l7.13-7.93"/>
      <path id="Vector_43" data-name="Vector 43" class="cls-6" d="m23.4,70.55c1.57-2.53,3.5-4.81,5.73-6.78"/>
      <path id="Vector_44" data-name="Vector 44" class="cls-5" d="m129.14,63.5c1.82.18,5.51,1.32,4.83.53-.49-.46-1.06-.83-1.68-1.1-2.35-1.15-4.6-1.52-7.1-2.2l-19.38-4.7-8.09-6.72"/>
      <path id="Vector_45" data-name="Vector 45" class="cls-6" d="m67.16,65.8l-14.94,21.96-14.44-11.45"/>
      <path id="Vector_46" data-name="Vector 46" class="cls-6" d="m108.01,15.8c.11.68.02,1.37-.26,1.99-.28.62-.74,1.15-1.32,1.51-.58.36-1.26.54-1.94.52-.68-.02-1.35-.25-1.9-.64-.56-.4-.98-.95-1.22-1.59-.24-.64-.29-1.34-.13-2.01.15-.67.5-1.27,1-1.74.5-.47,1.13-.78,1.8-.89.91-.15,1.83.07,2.58.6.75.53,1.25,1.34,1.4,2.25h0Z"/>
      <path id="Vector_47" data-name="Vector 47" class="cls-6" d="m117.44,14.23c.11.68.02,1.37-.26,1.99-.28.62-.74,1.15-1.32,1.51-.58.36-1.26.54-1.94.52-.68-.02-1.35-.25-1.9-.64-.56-.4-.98-.95-1.22-1.59-.24-.64-.29-1.34-.13-2.01.15-.67.5-1.27,1-1.74.5-.47,1.13-.78,1.8-.89.91-.15,1.83.07,2.58.6.75.53,1.25,1.34,1.4,2.25h0Z"/>
      <path id="Vector_48" data-name="Vector 48" class="cls-6" d="m127.04,12.63c.11.68.02,1.37-.26,1.99-.28.62-.74,1.15-1.32,1.51-.58.36-1.26.54-1.94.52-.68-.02-1.35-.25-1.9-.64-.56-.4-.98-.95-1.22-1.59-.24-.64-.29-1.34-.13-2.01.15-.67.5-1.27,1-1.74.5-.47,1.13-.78,1.8-.89.91-.15,1.83.07,2.58.6.75.53,1.25,1.34,1.4,2.25h0Z"/>
      <path id="Vector_49" data-name="Vector 49" class="cls-6" d="m27.88.44l-6.36,8.96"/>
      <path id="Vector_50" data-name="Vector 50" class="cls-6" d="m29.18,8.1L20.23,1.74"/>
      <path id="Vector_51" data-name="Vector 51" class="cls-6" d="m2.6,97.05l-.2.07,6.15,5.45L.44,111.48l4.35,3.88,8.11-8.93,6.13,5.45,4.58-21.58-21.01,6.75Z"/>
      <path id="Vector_52" data-name="Vector 52" class="cls-6" d="m109.9,109.35l-12.9-4,10.85-7.53"/>
      <path id="Vector_53" data-name="Vector 53" class="cls-6" d="m120.49,107.65l10.76-7.96-12.81-3.58"/>
      <path id="Vector_54" data-name="Vector 54" class="cls-6" d="m116.46,91.35l-4.71,22.96"/>
      <path id="Vector_55" data-name="Vector 55" class="cls-6" d="m12.15,69.84l8.64,53.29c.31,1.82.97,3.56,1.95,5.12.98,1.56,2.26,2.91,3.76,3.98,1.5,1.07,3.2,1.82,5,2.23,1.8.41,3.66.46,5.48.15l6.93-1.17"/>
      <path id="Vector_56" data-name="Vector 56" class="cls-6" d="m146.95,69.26l5.15,31.73c.31,1.82.26,3.68-.15,5.48-.41,1.8-1.17,3.5-2.23,5-1.07,1.5-2.42,2.78-3.98,3.76-1.56.98-3.3,1.64-5.12,1.95l-83.91,14.11"/>
      <path id="Vector_57" data-name="Vector 57" class="cls-6" d="m62.03,14.03l-43.64,7.33c-1.82.31-3.56.97-5.12,1.95s-2.91,2.26-3.98,3.76c-1.07,1.5-1.83,3.2-2.23,5-.41,1.8-.46,3.66-.15,5.48l4.27,26.35"/>
      <path id="Vector_58" data-name="Vector 58" class="cls-6" d="m86.56,9.91l35.47-5.96c1.82-.31,3.68-.26,5.48.15,1.8.41,3.5,1.17,5,2.23,1.5,1.07,2.78,2.42,3.76,3.98.98,1.56,1.64,3.3,1.95,5.12l6.58,40.55"/>
      <path id="Vector_59" data-name="Vector 59" class="cls-6" d="m47.45,127.66c1.84,2.52,4.06,4.73,6.6,6.55"/>
    </g>
  </g>
</svg>