<?xml version="1.0" encoding="UTF-8"?>
<svg id="_レイヤー_2" data-name="レイヤー 2" xmlns="http://www.w3.org/2000/svg" viewBox="0 0 142.11 43.9">
  <defs>
    <style>
      .cls-1 {
        fill: #a6aa8f;
      }

      .cls-2 {
        fill: #bea072;
      }

      .cls-3 {
        fill: none;
        stroke: #bea072;
        stroke-linecap: round;
        stroke-miterlimit: 10;
      }
    </style>
  </defs>
  <g id="PC文字">
    <g>
      <path class="cls-1" d="m14.67,24.84c.75.21,1.71.54,1.95.54.18,0,.45.33.45.51,0,.6.18,2.37.18,3.12,0,.84-.33,1.2-.72,1.2-.3,0-.48-.42-.6-.87-.3-1.26-.84-2.19-2.01-2.88-.93-.54-2.25-.87-3.51-.87-1.41,0-3.3.72-4.44,1.8-1.56,1.53-2.4,4.05-2.4,6.15,0,1.98.81,4.53,1.74,5.7,1.44,1.86,3.81,2.94,5.76,2.94.84,0,2.28-.39,3.12-.81.3-.15,1.08-.9,1.65-1.92.51-.96.75-1.35,1.05-1.35.36,0,.54.48.54,1.05,0,.27-.51,2.22-.66,2.82-.06.18-.42.6-.51.66-.96.42-3.75,1.02-5.61,1.02-3.27,0-6.36-1.02-8.28-3.15-1.32-1.44-2.37-3.66-2.37-6.33,0-3.42,1.47-6.12,4.11-7.95,1.35-.93,3.63-1.92,6.9-1.92,1.41,0,2.67.3,3.66.54Z"/>
      <path class="cls-1" d="m38.94,24.66c1.2,0,3.51.18,4.56.18.18,0,.57.36.63.42.33.54,1.44,1.89,2.88,3.45,1.59,1.71,7.11,7.98,8.16,8.94.09.06.3-.06.33-.21.09-.63.21-5.7.06-8.07-.15-2.46-.15-2.91-2.22-3.36-.72-.15-.87-.54-.87-.72,0-.21.27-.48.93-.48,1.02,0,1.26.03,2.04.03,1.23,0,2.91-.18,3.51-.18.63,0,.96.27.96.54,0,.21-.12.42-1.14.75-1.08.36-1.44.84-1.5,1.47-.06,1.02-.27,7.32-.27,10.11,0,1.32.09,3.21.09,4.59,0,1.26-.27,1.56-.66,1.56-.3,0-.93-.33-1.32-.9-.78-1.11-2.34-3.03-3.18-3.96-1.14-1.32-6.78-7.74-8.1-9.18-.15-.12-.3.03-.3.3-.03.66-.12,1.83-.12,3.03,0,1.35.09,4.59.12,5.4.09,2.61.27,2.97,1.86,3.48.72.24,1.02.45,1.02.87,0,.36-.54.51-.96.51-.84,0-1.5-.12-2.31-.12-1.41,0-3.09.18-3.48.18-.54,0-.99-.15-.99-.51,0-.3.3-.57.84-.72,1.83-.48,2.07-1.14,2.16-2.46.15-2.01.39-10.41.39-11.37,0-.33-.18-.84-.93-1.53-.45-.48-1.32-.72-1.89-.84-.51-.09-.93-.45-.93-.81,0-.24.24-.39.63-.39Z"/>
      <path class="cls-1" d="m76.59,24.84c1.68,0,2.25-.12,2.52-.36.33-.3.54-.51.72-.51.12,0,.63.36.63.6,0,.21-.36,1.98-.36,3.99,0,.48-.3.9-.69.9-.33,0-.51-.45-.57-.72-.42-1.92-1.02-2.19-1.89-2.28-.45-.06-1.71-.12-4.2-.12-.09,0-.33.21-.36.42-.06.75-.15,4.44-.15,6.33s-.03,4.47.09,6.09c.15,2.16.66,2.25,2.13,2.82.54.21.93.36.93.72,0,.3-.39.54-.99.54-.3,0-2.64-.15-4.44-.15-1.62,0-2.52.09-3.33.09-.63,0-.96-.24-.96-.6,0-.24.3-.48.87-.66,2.07-.54,2.58-.66,2.58-2.67,0-.63.09-3.84.09-8.22v-4.02c0-.36-.21-.69-.3-.69-.75,0-3.6-.03-4.05-.03-.51,0-1.32.33-2.04,2.25-.18.51-.45.84-.69.84-.51,0-.66-.45-.6-1.17.03-.93.27-2.25.21-3.69-.03-.3.48-.6.66-.6.09,0,.27.12.48.27.45.42.81.54,1.68.57,1.23.06,1.02.06,1.98.06h10.05Z"/>
      <path class="cls-1" d="m93.51,27.15c1.56,4.35,4.08,10.77,4.8,12.6.63,1.56.87,1.71,2.46,2.25.66.24.9.6.9.9,0,.21-.33.36-.78.36-1.47,0-2.79-.15-4.29-.15-1.32,0-1.41.09-2.4.09-.6,0-.87-.24-.87-.45,0-.24.15-.57.72-.75,1.35-.42,1.44-.69,1.17-1.68-.21-.84-.9-2.58-1.26-3.48-.06-.18-.39-.42-.78-.45-.57,0-4.2-.03-5.1.06-.15,0-.42.27-.48.42-.39,1.14-1.14,3.27-1.14,3.87,0,.42.15.84,1.5,1.26.39.12.69.27.69.54s-.33.66-1.05.66c-.33,0-1.53-.09-2.43-.09-1.02,0-1.65.15-2.82.15-.57,0-1.02-.15-1.02-.48,0-.3.24-.6.9-.78,1.44-.39,1.95-.93,2.34-1.8.93-1.92,3.93-9.48,5.46-13.5.06-.21.15-.54.18-.81,0-.09.15-.3.21-.33.36-.24.96-.66,1.26-.93.18-.18.51-.33.63-.33.33,0,.48.84,1.2,2.85Zm-.3,7.32c-.39-1.5-1.95-5.4-2.19-5.88-.09-.18-.3-.12-.39,0-.6,1.56-1.53,4.14-2.13,5.88-.03.12.03.3.24.33.51.03,3.78.06,4.32,0,.09,0,.21-.21.15-.33Z"/>
      <path class="cls-1" d="m117.96,24.84c.75.21,1.71.54,1.95.54.18,0,.45.33.45.51,0,.6.18,2.37.18,3.12,0,.84-.33,1.2-.72,1.2-.3,0-.48-.42-.6-.87-.3-1.26-.84-2.19-2.01-2.88-.93-.54-2.25-.87-3.51-.87-1.41,0-3.3.72-4.44,1.8-1.56,1.53-2.4,4.05-2.4,6.15,0,1.98.81,4.53,1.74,5.7,1.44,1.86,3.81,2.94,5.76,2.94.84,0,2.28-.39,3.12-.81.3-.15,1.08-.9,1.65-1.92.51-.96.75-1.35,1.05-1.35.36,0,.54.48.54,1.05,0,.27-.51,2.22-.66,2.82-.06.18-.42.6-.51.66-.96.42-3.75,1.02-5.61,1.02-3.27,0-6.36-1.02-8.28-3.15-1.32-1.44-2.37-3.66-2.37-6.33,0-3.42,1.47-6.12,4.11-7.95,1.35-.93,3.63-1.92,6.9-1.92,1.41,0,2.67.3,3.66.54Z"/>
      <path class="cls-1" d="m138.24,24.84c1.68,0,2.25-.12,2.52-.36.33-.3.54-.51.72-.51.12,0,.63.36.63.6,0,.21-.36,1.98-.36,3.99,0,.48-.3.9-.69.9-.33,0-.51-.45-.57-.72-.42-1.92-1.02-2.19-1.89-2.28-.45-.06-1.71-.12-4.2-.12-.09,0-.33.21-.36.42-.06.75-.15,4.44-.15,6.33s-.03,4.47.09,6.09c.15,2.16.66,2.25,2.13,2.82.54.21.93.36.93.72,0,.3-.39.54-.99.54-.3,0-2.64-.15-4.44-.15-1.62,0-2.52.09-3.33.09-.63,0-.96-.24-.96-.6,0-.24.3-.48.87-.66,2.07-.54,2.58-.66,2.58-2.67,0-.63.09-3.84.09-8.22v-4.02c0-.36-.21-.69-.3-.69-.75,0-3.6-.03-4.05-.03-.51,0-1.32.33-2.04,2.25-.18.51-.45.84-.69.84-.51,0-.66-.45-.6-1.17.03-.93.27-2.25.21-3.69-.03-.3.48-.6.66-.6.09,0,.27.12.48.27.45.42.81.54,1.68.57,1.23.06,1.02.06,1.98.06h10.05Z"/>
    </g>
    <g>
      <line class="cls-3" x1="31.51" y1=".5" x2="31.51" y2="36.5"/>
      <path class="cls-2" d="m32.38,36.07c0,3.21-1.94,5.67-3.24,6.67-1.32,1.03-2.78,1.16-3.4,1.16-1.16,0-2.81-.89-2.81-3.46,0-1.57.65-3.81,2-5.51,1.38-1.7,3.16-2.46,4.45-2.46,2.05,0,3,2,3,3.59Zm-4.99-1.08c-1.05,1.7-2.11,4.91-2.11,6.8,0,1.13.38,1.51.7,1.51.4,0,.86-.35,1.46-1.13,1.19-1.59,2.78-5.94,2.78-7.99,0-.84-.38-1.13-.65-1.13-.57,0-1.38.67-2.19,1.94Z"/>
    </g>
    <line class="cls-3" x1="20.51" y1="38.5" x2="34.51" y2="38.5"/>
  </g>
</svg>