<?xml version="1.0" encoding="UTF-8"?>
<svg id="_レイヤー_2" data-name="レイヤー 2" xmlns="http://www.w3.org/2000/svg" viewBox="0 0 15 19.38">
  <defs>
    <style>
      .cls-1 {
        fill: #bea072;
      }
    </style>
  </defs>
  <g id="WORKS_素材" data-name="WORKS 素材">
    <g>
      <path class="cls-1" d="m.31,19.36c.01-.18.01-.31.03-.44,0-.08.01-.17.05-.23.45-.66.92-1.31,1.36-1.97.31-.46.6-.95.91-1.41.43-.65.88-1.3,1.32-1.95.31-.47.61-.94.92-1.41.16-.26.3-.53.48-.77.12-.16.08-.26-.06-.35-.24-.15-.48-.28-.72-.43-.49-.31-.97-.62-1.46-.93-.73-.46-1.3-1.09-1.88-1.71-.15-.16-.27-.34-.37-.53-.25-.45-.51-.9-.64-1.42-.13-.51-.3-1-.22-1.53.02-.11.1-.21.15-.32.04-.1.1-.2.12-.3.2-1.23.89-2.15,1.86-2.87C2.8.3,3.58.07,4.38,0c.39-.03.82.08,1.2.23.43.16.87.31,1.24.62.32.26.56.56.74.93.15.33.33.63.3,1.02-.03.5-.46,1.09-.91,1.29-.5.22-.98.25-1.48,0-.27-.13-.47-.32-.58-.58-.16-.39-.26-.79-.41-1.18-.21-.58-.63-1.02-1.25-.88-.48.11-.78.48-.98.92-.07.15-.1.31-.18.45-.22.38-.15.75-.03,1.15.24.84.73,1.51,1.39,2.04.44.36.97.62,1.47.9.4.23.83.43,1.24.63.35.17.69.35,1.1.33.09,0,.21-.05.27-.12.24-.33.47-.67.7-1,.36-.54.72-1.07,1.08-1.62.29-.45.58-.91.87-1.35.29-.45.59-.9.89-1.34.34-.52.68-1.05,1.03-1.57.12-.17.24-.34.38-.49.04-.04.12-.06.18-.06.35,0,.71,0,1.06,0,.23.01.29.11.18.32-.14.27-.31.52-.48.77-.34.51-.69,1.02-1.04,1.53-.31.46-.63.93-.94,1.39-.31.47-.62.95-.93,1.43-.31.47-.63.93-.95,1.39-.17.26-.34.52-.51.78-.06.09-.11.18-.18.26-.21.25-.12.55.18.7.35.18.69.39,1.03.59.23.14.45.28.67.43.94.63,1.72,1.42,2.34,2.36.26.4.5.82.54,1.32.01.11.13.2.19.31.03.05.06.11.06.17,0,.45.01.9,0,1.35,0,.12-.07.25-.1.37-.08.24-.14.5-.24.73-.16.35-.31.73-.55,1.03-.28.37-.61.71-.98.99-.32.25-.67.51-1.11.56-.11.01-.3-.03-.28.2,0,.02-.11.06-.17.06-.52.02-1.05.06-1.57.05-.54,0-.99-.27-1.42-.57-.39-.26-.65-.63-.93-.99-.06-.07-.11-.17-.12-.26-.03-.35-.06-.7-.07-1.05,0-.28.14-.5.33-.7.77-.78,2-.62,2.41.37.13.32.25.64.33.97.22.86,1.24,1.17,1.9.57.46-.42.67-.92.69-1.55.03-.99-.39-1.76-1.14-2.35-.4-.32-.83-.59-1.27-.85-.47-.28-.97-.51-1.46-.77-.35-.19-.7-.39-1.04-.59-.16-.09-.46.02-.61.25-.29.44-.56.89-.85,1.34-.33.5-.66,1-.99,1.5-.3.46-.58.92-.88,1.38-.33.5-.66,1-.99,1.5-.18.28-.34.58-.54.86-.18.26-.37.52-.59.74-.11.11-.31.16-.47.18-.28.03-.57,0-.84,0Z"/>
      <path class="cls-1" d="m1.02,13.67c-.05-.05-.1-.14-.16-.15-.24-.07-.42-.2-.52-.43-.09-.2-.2-.4-.27-.61-.03-.11,0-.26.03-.37.07-.2.16-.38.25-.57.3-.64,1.39-.91,1.98-.52.47.3.74.68.77,1.25.02.49-.27,1.01-.72,1.21-.03.01-.07.01-.09.04-.25.37-.64.23-.98.25-.11,0-.22-.02-.33-.03.01-.02.02-.04.04-.06Z"/>
      <path class="cls-1" d="m11.99,7.32c-.03-.49.21-.86.62-1.13.84-.55,1.84-.28,2.3.61.21.4,0,1.05-.39,1.41-.49.45-1.06.43-1.63.3-.47-.1-.9-.71-.9-1.2Z"/>
    </g>
  </g>
</svg>