<?xml version="1.0" encoding="UTF-8"?>
<svg id="_レイヤー_2" data-name="レイヤー 2" xmlns="http://www.w3.org/2000/svg" viewBox="0 0 153.62 142.61">
  <defs>
    <style>
      .cls-1 {
        fill: #323333;
      }

      .cls-2 {
        fill: #bea072;
      }

      .cls-3 {
        fill: #c4a672;
      }

      .cls-4 {
        fill: #80807e;
      }

      .cls-5 {
        fill: #828282;
      }

      .cls-6 {
        fill: #4d4d4d;
      }

      .cls-7 {
        stroke-linecap: round;
      }

      .cls-7, .cls-8 {
        fill: none;
        stroke: #7f7f80;
        stroke-linejoin: round;
        stroke-width: .6px;
      }
    </style>
  </defs>
  <g id="PC文字">
    <path id="Vector" class="cls-2" d="m96.38,46.12c-1.18,1.33-5.23,5.8-6.5,7.5-8.16-11.87-9.77-13.13-16.22-13.13-11.34.06-23.15,4.17-32.7,10.11-6.33,3.95-6.86,5.92-7.59,12.04-.55,4.26-.84,8.54-.89,12.84.28-2.04,13.08-1.62,13.08.73.03-3.87.38-12.9.6-14.95.84-.31,1.97-.72,3.21-1.15,2.27-2,4.41-4.14,6.41-6.41.77,3.74,1.24,7.53,1.41,11.34,5.25-2.52,11.78-2.83,17.55-1.65.08-.21.17-.44.24-.66.03-2.96-.14-5.91-.52-8.84,1.7,2.7,8.04,11.45,10.47,13.83,3.95,3.89,7.33,3.53,11.14-.92,3.29-3.81,6.36-7.8,9.19-11.97.52-5.74-5.23-9.68-8.89-8.72Z"/>
    <path id="Vector_2" data-name="Vector 2" class="cls-4" d="m95.13,124.36c-.67-.89-1-1.99-.92-3.11-2.87-.6-5.8-.85-8.72-.72-.54,3.38-.86,6.58-1.12,8.3.7-2.26,21.88,4.01,22.34,6.79.11-4.02-8.52-7.24-11.58-11.26Z"/>
    <path id="Vector_3" data-name="Vector 3" class="cls-4" d="m133.12,10.44c-3.6-3.43-.15-6.86-1.55-10.44,4.12,1.64,6.9,5.85,5.05,9.81l-3.5.63Z"/>
    <path id="Vector_4" data-name="Vector 4" class="cls-4" d="m26.47,116.48c-3.88.81-6.2,1.51-7.86,1.88,2.68,0,4.09,21.88,1.42,23.81,3.94-1.66,3.65-10.51,5.23-14.2.23-.65.63-1.24,1.15-1.69.52-.46,1.15-.77,1.83-.91-.1-3.04-.7-6.04-1.78-8.89Z"/>
    <path id="Vector_5" data-name="Vector 5" class="cls-2" d="m114.47,30.43c-3.84-3.11-9.26.28-9,4.42.83.02,1.65.19,2.42.52.45.74.71,1.59.75,2.46.52.95.93,1.73,1.27,2.4,5.1,1.55,9.61-5.73,4.56-9.81Z"/>
    <path id="Vector_6" data-name="Vector 6" class="cls-3" d="m98.69,36.66l-1.21-1.32-1.04-3.21c-3.96-1.7-10.63,1.68-10.36,8.39.24,5.83,5.92,8.2,8.86,7.25.63-.7,1.15-1.29,1.47-1.65.34-.09.7-.14,1.06-.12.15-2.86-.28-4.41-.28-5.86,0-.58.69-1.65,1.5-3.47Z"/>
    <path id="Vector_7" data-name="Vector 7" class="cls-5" d="m127.12,25.16l-40.61-9.65c-2.66-.49-4.21.63-4.97,2.62l-2.98,7.69c.86,6.89.78,10.05.14,10.83-.55.67-1.82.99-3.35.77.16,1.07.37,2.12.63,3.17.57.05,1.13.13,1.68.26l8.34-21.73,39.03,9.47-12.3,35.16-11.37-3.43c-.87,1.13-1.82,2.34-2.86,3.61l14.31,4.3c2.19.66,4.3-.05,5.26-2.69l12.1-34.81c.83-2.39.58-4.67-3.05-5.55Zm-4.47,22.62c-.05.18-.14.35-.25.5-.12.15-.26.27-.43.35-.17.09-.35.14-.53.16-.19.01-.38,0-.55-.07-.18-.06-.34-.16-.48-.28-.14-.13-.25-.28-.33-.45s-.12-.36-.12-.54c0-.19.03-.37.1-.55.05-.18.14-.35.25-.5.12-.15.26-.27.43-.35.17-.09.35-.14.53-.16.19-.01.38,0,.55.07.18.06.34.16.48.28.14.13.25.28.33.45.08.17.12.36.12.54,0,.19-.03.37-.1.55Z"/>
    <path id="Vector_8" data-name="Vector 8" class="cls-1" d="m100.47,38.59l3.4,3.72c-1.76.77-3.69-.79-3.4-3.72Z"/>
    <path id="Vector_9" data-name="Vector 9" class="cls-1" d="m105.3,37.43c-.43-.11-1.38-.28-2.5-.44l2.5,2.72c.06-.76.06-1.52,0-2.28Z"/>
    <path id="Vector_10" data-name="Vector 10" class="cls-1" d="m94.22,121.23c2.63.61,3.34,1.44,3.34,2.05,0,.78-1.29,1.06-2.42,1.06-.67-.89-.99-1.99-.92-3.11Z"/>
    <path id="Vector_11" data-name="Vector 11" class="cls-1" d="m85.49,120.53c-.2,1.35-.37,2.46-.49,3.43-1.81-.35-2.96-1.12-2.89-1.96.06-.7,1.01-1.3,3.38-1.47Z"/>
    <path id="Vector_12" data-name="Vector 12" class="cls-1" d="m23.88,113.89c.71-.18,1.68.44,2.59,2.6-1.61.35-2.83.64-3.83.89-.24-1.88.43-3.28,1.24-3.49Z"/>
    <path id="Vector_13" data-name="Vector 13" class="cls-1" d="m28.24,125.37c-.68.15-1.3.46-1.83.92-.52.45-.92,1.03-1.16,1.68.32,1.01,1.18,2.07,1.97,1.51.57-.41,1.07-1.68,1.01-4.11Z"/>
    <path id="Vector_14" data-name="Vector 14" class="cls-1" d="m70.89,75.6c-.28,3.9-.08,13.19,0,16.46-1.53-.49-2.88-.9-3.89-1.18,1.5-6.17,2.69-11.02,3.89-15.29Z"/>
    <path id="Vector_15" data-name="Vector 15" class="cls-1" d="m32.5,75.45c-.09.67,1.16,1.38,2.98,1.47.16-.12.29-.29.38-.47.14-.74.19-1.49.15-2.23-2.43.17-3.44.7-3.52,1.24Z"/>
    <path id="Vector_16" data-name="Vector 16" class="cls-1" d="m45.56,76.05c-.13-.51-.94-1.06-2.67-1.4.05.67.08,1.65.12,2.74,1.01-.03,2.79-.42,2.55-1.33Z"/>
    <path id="Vector_17" data-name="Vector 17" class="cls-1" d="m55.8,53.69c.28,1.32.54,2.77.75,4.27-2.42.59-4.8,1.31-7.15,2.14,2.26-2.01,4.39-4.15,6.4-6.41Z"/>
    <path id="Vector_18" data-name="Vector 18" class="cls-1" d="m76.99,57.58c-.72,1.81-1.38,3.5-1.99,5.15.03-2.96-.14-5.91-.52-8.84.43.69,1.36,2.07,2.51,3.69Z"/>
    <path id="Vector_19" data-name="Vector 19" class="cls-3" d="m97.04,130.76c-5.86-1.88-12.28-3.17-12.67-1.94-.52,1.65,5.35,4.03,11.2,5.66,5.07,1.41,10.14,2.25,11.01,1.54,1.67-1.37-7.46-4.59-9.54-5.26Z"/>
    <path id="Vector_20" data-name="Vector 20" class="cls-3" d="m21.31,129.22c-.38-5.59-1.39-10.84-2.72-10.84-1.62,0-2.17,5.36-1.98,11.02.22,6.28,1.36,12.91,3.02,12.91,2.34-.52,1.84-10.72,1.68-13.09Z"/>
    <path id="Vector_21" data-name="Vector 21" class="cls-3" d="m136.01,78.83c-4.03-.79-8.21-.4-12.03,1.12-3.82,1.52-7.12,4.11-9.51,7.46-2.39,3.35-3.76,7.31-3.95,11.42-.19,4.11.8,8.18,2.87,11.74,11.4-7.13,19.26-18.58,22.62-31.74Z"/>
    <path id="Vector_22" data-name="Vector 22" class="cls-1" d="m75.22,35.3c1.59,1.15,3.06,1.9,3.55,1.18-.47.95-1.47,1.22-3.4.92-.08-.7-.12-1.41-.15-2.1Z"/>
    <path id="Vector_23" data-name="Vector 23" class="cls-6" d="m80.57,19.17c-.86-1.09-2.34-1.74-4.62-1.5,1.01-8.34-10.88-9.53-11.34-2.56-6.07-4.73-15.84,2.6-8.97,7.65-3.73.23-4.97,5.17-.98,5.17-9.21,6.29-1.96,20.29,17.96,7.01,1.07-.92,2.04-1.96,2.88-3.11-1.7-2.31.2-3.76.9-2.11.4.95.84-.5.84-1.68.56.03,1.11.18,1.61.43,2.29-1.33,3.82-6.64,1.71-9.3Z"/>
    <path id="Vector_24" data-name="Vector 24" class="cls-2" d="m133.12,10.44c-3.6-3.43-.15-6.86-1.55-10.44,4.12,1.64,6.9,5.85,5.05,9.81l-3.5.63Z"/>
    <path id="Vector_25" data-name="Vector 25" class="cls-8" d="m75.97,40.57c.57.05,1.13.13,1.68.26l8.34-21.73,39.03,9.47-12.3,35.16-11.37-3.43c-.87,1.13-1.82,2.34-2.86,3.61l14.31,4.3c2.19.66,4.3-.05,5.26-2.69l12.1-34.81c.83-2.39.58-4.67-3.05-5.55l-40.61-9.65c-2.66-.49-4.21.63-4.97,2.62l-.62,1.59m41.73,28.06c-.05.18-.14.35-.25.5-.12.15-.26.27-.43.35-.17.09-.35.14-.53.16-.19.01-.38,0-.55-.07-.18-.06-.34-.16-.48-.28-.14-.13-.25-.28-.33-.45s-.12-.36-.12-.54c0-.19.03-.37.1-.55.05-.18.14-.35.25-.5.12-.15.26-.27.43-.35.17-.09.35-.14.53-.16.19-.01.38,0,.55.07.18.06.34.16.48.28.14.13.25.28.33.45.08.17.12.36.12.54,0,.19-.03.37-.1.55Z"/>
    <path id="Vector_26" data-name="Vector 26" class="cls-7" d="m2.47,112.5l10.16-14.51"/>
    <path id="Vector_27" data-name="Vector 27" class="cls-7" d="m.3,100.16l14.51,10.16"/>
    <path id="Vector_28" data-name="Vector 28" class="cls-7" d="m99.13,79.22l9.79-1.73"/>
    <path id="Vector_29" data-name="Vector 29" class="cls-7" d="m103.17,73.46l1.71,9.79"/>
    <path id="Vector_30" data-name="Vector 30" class="cls-7" d="m131.91,121.25c11.82,0,21.41-9.58,21.41-21.41s-9.58-21.41-21.41-21.41-21.41,9.58-21.41,21.41,9.58,21.41,21.41,21.41Z"/>
    <path id="Vector_31" data-name="Vector 31" class="cls-7" d="m22.72,54.64c4.83,0,8.75-3.92,8.75-8.75s-3.92-8.75-8.75-8.75-8.75,3.92-8.75,8.75,3.92,8.75,8.75,8.75Z"/>
    <path id="Vector_32" data-name="Vector 32" class="cls-7" d="m60.59,116.73c7.08,1.42,14.31,2.05,21.53,1.87"/>
    <path id="Vector_33" data-name="Vector 33" class="cls-7" d="m97.56,117.04c35.37-7.85,51.35-49.52,31.89-84.22M40.96,110.08c-16.51-8.13-29.19-22.39-35.33-39.74C-7.32,34.84,14.76,19.11,35.54,25.29c10.82,3.22,16.07.4,16.74-9.18.63-8.92,6.96-15.61,25.87-14.46,16.39,1,35.15,10.62,45.47,22.65"/>
    <path id="Vector_34" data-name="Vector 34" class="cls-7" d="m27.16,6.76l-20.21,3.57c-.78.15-1.47.6-1.92,1.26-.45.66-.63,1.46-.49,2.25s.58,1.48,1.23,1.94c.65.46,1.45.65,2.24.52l20.21-3.57,5.75-4.1-6.81-1.87Z"/>
    <path id="Vector_35" data-name="Vector 35" class="cls-7" d="m7.89,10.16l1.06,5.97"/>
    <path id="Vector_36" data-name="Vector 36" class="cls-7" d="m11.32,9.56l1.04,5.97"/>
    <path id="Vector_37" data-name="Vector 37" class="cls-7" d="m27.16,6.76l1.06,5.97"/>
    <path id="Vector_38" data-name="Vector 38" class="cls-7" d="m133.12,10.44c.06,2.71.31,5.41.75,8.08,1.39,7.9,3.96,16.22,5.29,15.99,1.33-.23.91-8.94-.49-16.83-.5-2.66-1.18-5.29-2.05-7.85l-3.5.61Z"/>
    <path id="Vector_39" data-name="Vector 39" class="cls-7" d="m133.7,17.54l4.8-.84"/>
    <path id="Vector_40" data-name="Vector 40" class="cls-7" d="m35.48,76.94c-1.82-.09-3.07-.8-2.98-1.47.1-.72,1.82-1.42,6.26-1.29,5.02.15,6.88,1.19,6.84,2.04-.03.6-1.1,1.1-2.57,1.15"/>
    <path id="Vector_41" data-name="Vector 41" class="cls-7" d="m89.89,53.6c1.27-1.7,5.32-6.15,6.5-7.5,2.86-.78,9.38,2.16,8.87,8.74-2.84,4.16-5.91,8.15-9.2,11.96-3.82,4.44-7.17,4.82-11.14.92-2.55-2.51-9.07-11.6-10.45-13.83.38,2.93.55,5.89.52,8.84"/>
    <path id="Vector_42" data-name="Vector 42" class="cls-7" d="m91.45,55.9c-9.72-14.29-11.14-15.42-17.78-15.42-10.36,0-22.42,3.69-32.7,10.11-6.34,3.96-6.83,5.94-7.59,12.04-.54,4.26-.83,8.55-.89,12.84"/>
    <path id="Vector_43" data-name="Vector 43" class="cls-7" d="m76.99,57.56c-5.86,14.61-7.4,22.62-15.15,55-1.46,6.14-3.07,9.18-10.25,11.25-7.5,2.17-22.46,5.19-24.64,5.77"/>
    <path id="Vector_44" data-name="Vector 44" class="cls-7" d="m22.64,117.36c-.24-1.85.43-3.26,1.24-3.47,1.06-.28,2.73,1.27,3.83,6.98,1.16,6.04.24,8.5-.75,8.74-.63.15-1.35-.54-1.7-1.64"/>
    <path id="Vector_45" data-name="Vector 45" class="cls-7" d="m23.88,113.89c5.36-1.19,24.9-5.56,26.23-5.86"/>
    <path id="Vector_46" data-name="Vector 46" class="cls-7" d="m74.76,63.39c-10.53-2.14-22.35.75-26.14,10.76-3.32,8.78-2.3,19.86-1.45,34.52"/>
    <path id="Vector_47" data-name="Vector 47" class="cls-7" d="m54.85,50.04c1.37,4.9,2.16,9.93,2.36,15.01"/>
    <path id="Vector_48" data-name="Vector 48" class="cls-7" d="m45.58,76.22c.03-3.86.38-12.91.6-14.96,3.39-1.29,6.85-2.38,10.36-3.29"/>
    <path id="Vector_49" data-name="Vector 49" class="cls-7" d="m18.6,118.37c2.8,0,4.22,23.95,1.04,23.93-3.18-.02-4.45-23.94-1.04-23.93Z"/>
    <path id="Vector_50" data-name="Vector 50" class="cls-7" d="m18.6,118.37c1.77-.4,3.27-.89,7.86-1.9"/>
    <path id="Vector_51" data-name="Vector 51" class="cls-7" d="m28.26,125.37c-2.2.64-3.28,1.7-4.13,7.44-.59,3.95-1.68,8.78-4.48,9.5"/>
    <path id="Vector_52" data-name="Vector 52" class="cls-7" d="m85,123.96c-1.81-.35-2.95-1.12-2.89-1.94.07-1.06,2.07-1.86,7.73-1.41,6.31.51,7.71,1.81,7.71,2.68,0,.78-1.29,1.06-2.42,1.06"/>
    <path id="Vector_53" data-name="Vector 53" class="cls-7" d="m84.37,128.82c.73-2.34,23.19,4.41,22.32,7.04-.67,2.04-23.32-3.87-22.32-7.04Z"/>
    <path id="Vector_54" data-name="Vector 54" class="cls-7" d="m84.37,128.82c.26-1.76.44-3.76,1.12-8.3"/>
    <path id="Vector_55" data-name="Vector 55" class="cls-7" d="m94.22,121.23c-.02,2.26.64,3.64,5.37,7.01,3.7,2.63,7.42,4.82,7.1,7.62"/>
    <path id="Vector_56" data-name="Vector 56" class="cls-7" d="m72.4,70.42c6.36,4.05,12.49,8.46,18.36,13.19,6.16,5.13,6.79,7.04,6.79,15.93v23.75"/>
    <path id="Vector_57" data-name="Vector 57" class="cls-7" d="m82.1,122.01c.11-6.14.15-23.92,0-26.2-4.62-1.59-11.78-3.99-15.1-4.91"/>
    <path id="Vector_58" data-name="Vector 58" class="cls-7" d="m69.97,62.78c-6.17,7.64-10.05,25.29-13.43,50.34-9.44,2.97-23.73,6.29-28.9,7.36"/>
    <path id="Vector_59" data-name="Vector 59" class="cls-7" d="m42.9,74.61c.12,2.4.37,8.62.05,9.78-.32,1.16-3.76,6.83-5.81,9.24-1.3,1.53-2.9,1.88-1.25-1.3.97-1.9,1.8-3.86,2.5-5.88,1.95-5.55-2.17-6.75-3.83-4.76-2.52,3.03-4.41,3.79-3.41,1.41.61-1.45.93-2.33,1.36-3.43.43-1.1,3.18-2.54,3.37-3.18.15-.74.2-1.49.15-2.23"/>
    <path id="Vector_60" data-name="Vector 60" class="cls-7" d="m37.38,89.05c-1.27,1.29-2.7,2.41-4.25,3.34-1.9,1.11-2.56.08-.32-2,1.56-1.45,2.97-3.06,4.2-4.8"/>
    <path id="Vector_61" data-name="Vector 61" class="cls-7" d="m35.69,84.48c.79.78,1.7,1.44,2.69,1.95"/>
    <path id="Vector_62" data-name="Vector 62" class="cls-7" d="m35.19,87.89c-1.45.72-2.99,1.26-4.58,1.59-2.06.43-1.79-.78.4-1.7,1.76-.83,3.42-1.84,4.97-3.01"/>
    <path id="Vector_63" data-name="Vector 63" class="cls-7" d="m33.15,86.67c-1.11.18-2.24.24-3.37.18-1.5-.18-1.93-1.06.35-1.41,1.79-.26,3.54-.79,5.17-1.58.18-1.11.59-2.17,1.21-3.11"/>
    <path id="Vector_64" data-name="Vector 64" class="cls-7" d="m70.9,92.07c-.08-3.32-.28-12.79,0-16.6"/>
    <path id="Vector_65" data-name="Vector 65" class="cls-7" d="m49.39,60.1c2.27-2,4.41-4.14,6.41-6.41"/>
    <path id="Vector_66" data-name="Vector 66" class="cls-7" d="m98.69,36.65l-1.21-1.32-1.04-3.2,3.11,1.3,14.55,15.81c.25.27.38.63.37,1-.01.37-.17.72-.45.97-.27.25-.63.38-1,.37-.37-.01-.72-.18-.97-.45l-11.55-12.56"/>
    <path id="Vector_67" data-name="Vector 67" class="cls-7" d="m111.9,46.85c-.49.09-.94.32-1.31.65s-.63.77-.76,1.25"/>
    <path id="Vector_68" data-name="Vector 68" class="cls-7" d="m112.72,47.76c-.49.09-.94.32-1.31.65-.36.34-.63.77-.76,1.25"/>
    <path id="Vector_69" data-name="Vector 69" class="cls-7" d="m97.45,45.98c.15-2.86-.28-4.41-.28-5.86,0-.67.93-2.04,1.93-4.48.66-1.62,1.96-.58,1.42,2.4-.58,3.26,1.47,5.08,3.35,4.24"/>
    <path id="Vector_70" data-name="Vector 70" class="cls-7" d="m102.81,36.97c1.12.17,2.07.34,2.5.44.06.76.06,1.52,0,2.28"/>
    <path id="Vector_71" data-name="Vector 71" class="cls-7" d="m100.53,34.51c2.08.09,6.86.37,7.36.87.77.77.95,4.5,1.04,5.81"/>
    <path id="Vector_72" data-name="Vector 72" class="cls-7" d="m108.64,37.84c2.68,4.85,2.71,5.51,1.55,7.15"/>
    <path id="Vector_73" data-name="Vector 73" class="cls-7" d="m108.48,47.31c-1.45,1.87-3.14,3.58-3.5,4.51"/>
    <path id="Vector_74" data-name="Vector 74" class="cls-7" d="m72.65,34.93c1.07-.92,2.03-1.96,2.87-3.09-1.68-2.31.19-3.76.9-2.11.41.95.84-.5.84-1.68.56.04,1.11.18,1.61.43,3.23-1.88,4.96-11.63-2.92-10.82,1.01-8.34-10.9-9.52-11.34-2.56-6.07-4.71-15.84,2.63-8.97,7.67-3.73.23-4.97,5.17-.98,5.17-9.23,6.29-1.95,20.32,17.98,7Z"/>
    <path id="Vector_75" data-name="Vector 75" class="cls-7" d="m63.73,41.48c4.76-2.72,10.34-7.41,11.8-9.64"/>
    <path id="Vector_76" data-name="Vector 76" class="cls-7" d="m75.82,40.53c-.2-1.05-.36-2.09-.46-3.15,4.55.72,3.89-1.71,3.51-8.91"/>
    <path id="Vector_77" data-name="Vector 77" class="cls-7" d="m75.35,37.38c-.07-.69-.12-1.39-.15-2.08,1.59,1.16,3.06,1.9,3.55,1.16"/>
  </g>
</svg>