<?xml version="1.0" encoding="UTF-8"?>
<svg id="_レイヤー_2" data-name="レイヤー 2" xmlns="http://www.w3.org/2000/svg" viewBox="0 0 27.24 16.46">
  <defs>
    <style>
      .cls-1 {
        fill: #a6aa8f;
      }
    </style>
  </defs>
  <g id="PC文字">
    <g>
      <path class="cls-1" d="m13.81,0c.68.07,1.39.11,2.09.21.37.05.75.14,1.09.29.78.34,1.56.7,2.31,1.11.71.39,1.34.91,1.94,1.46.32.3.65.6.95.93.39.42.75.86,1.12,1.29.2.24.41.48.59.73.18.25.34.51.52.76.22.33.45.66.66,1,.12.18.22.37.31.56.15.29.28.59.42.88.15.32.3.64.45.96,0,0,0,0,0,.01.12.39.25.77.37,1.16.03.09.02.2.06.29.21.56.27,1.16.36,1.74.08.56.12,1.13.17,1.7.04.42-.08.52-.5.47-.23-.03-.3-.09-.34-.32-.04-.23-.06-.46-.22-.65-.03-.03-.03-.09-.04-.13-.12-.51-.29-1-.54-1.47-.11-.21-.2-.43-.28-.65-.19-.51-.5-.96-.81-1.4-.33-.45-.63-.92-.98-1.35-.3-.37-.64-.72-.98-1.06-.25-.24-.52-.47-.8-.67-.37-.26-.75-.5-1.14-.74-.61-.38-1.25-.68-1.93-.9-.26-.09-.53-.15-.8-.23-.08-.02-.16-.07-.25-.09-.21-.05-.42-.1-.62-.15-.18-.04-.35-.06-.53-.1-.22-.04-.44-.12-.66-.14-.83-.05-1.67-.11-2.5-.1-.69,0-1.38.11-2.07.16-.07,0-.14-.02-.21-.04-.12-.02-.25-.09-.31.1-.01.03-.07.06-.11.06-.23.02-.45.02-.68.05-.1.01-.19.08-.28.11-.12.05-.23.11-.35.13-.51.08-.97.29-1.44.48-.31.13-.61.28-.91.43-.16.08-.3.17-.45.27-.64.42-1.3.81-1.84,1.35-.34.34-.67.7-.98,1.07-.34.42-.68.84-.98,1.29-.27.41-.5.85-.73,1.29-.16.3-.31.6-.44.91-.13.31-.24.63-.35.95-.13.42-.27.83-.37,1.25-.08.31-.44.38-.68.25-.06-.03-.11-.15-.11-.22.03-.68.01-1.37.12-2.04.12-.77.33-1.53.55-2.27.17-.56.44-1.09.67-1.63.11-.27.22-.53.35-.79.15-.3.33-.59.49-.88.09-.16.18-.31.28-.46.27-.4.54-.81.83-1.2.3-.41.6-.81.92-1.2.22-.27.47-.51.71-.76.24-.25.47-.49.72-.73.25-.24.52-.47.79-.69.27-.22.54-.44.84-.63.43-.28.87-.53,1.32-.79.28-.16.57-.3.86-.42.19-.08.41-.1.61-.17.06-.02.1-.08.15-.12.06-.04.12-.07.18-.09.2-.06.4-.12.6-.18.1-.03.2-.06.31-.07.82-.07,1.65-.13,2.51-.2Z"/>
      <path class="cls-1" d="m13.49,16.45c-.61.06-1.13-.21-1.65-.54-.52-.33-.8-.83-1.07-1.34-.08-.15-.1-.34-.12-.51-.03-.23-.02-.47-.04-.7-.03-.54.09-1.05.38-1.5.3-.46.69-.84,1.19-1.12.75-.43,1.52-.38,2.3-.23.3.06.6.23.85.41.28.2.55.46.77.73.18.24.33.52.41.81.15.56.12,1.14.04,1.72-.07.55-.37.97-.73,1.37-.23.25-.5.43-.78.6-.47.28-.99.32-1.55.3Z"/>
    </g>
  </g>
</svg>