<?xml version="1.0" encoding="UTF-8"?>
<svg id="_レイヤー_2" data-name="レイヤー 2" xmlns="http://www.w3.org/2000/svg" viewBox="0 0 20 20.34">
  <defs>
    <style>
      .cls-1 {
        fill: #a6aa8f;
      }
    </style>
  </defs>
  <g id="PC文字">
    <g>
      <path class="cls-1" d="m14.25,0H5.75C2.57,0,0,2.57,0,5.75v8.84c0,3.17,2.57,5.75,5.75,5.75h8.5c3.17,0,5.75-2.57,5.75-5.75V5.75c0-3.17-2.57-5.75-5.75-5.75ZM2.04,5.75c0-2.04,1.66-3.71,3.71-3.71h8.5c2.04,0,3.71,1.66,3.71,3.71v8.84c0,2.04-1.66,3.71-3.71,3.71H5.75c-2.04,0-3.71-1.66-3.71-3.71V5.75Z"/>
      <path class="cls-1" d="m10,15.41c2.89,0,5.24-2.35,5.24-5.24s-2.35-5.24-5.24-5.24-5.24,2.35-5.24,5.24,2.35,5.24,5.24,5.24Zm0-8.84c1.99,0,3.61,1.62,3.61,3.61s-1.62,3.61-3.61,3.61-3.61-1.62-3.61-3.61,1.62-3.61,3.61-3.61Z"/>
      <circle class="cls-1" cx="15.39" cy="4.78" r="1.17"/>
    </g>
  </g>
</svg>