<?xml version="1.0" encoding="UTF-8"?>
<svg id="_レイヤー_2" data-name="レイヤー 2" xmlns="http://www.w3.org/2000/svg" viewBox="0 0 113.7 74.07">
  <defs>
    <style>
      .cls-1 {
        fill: #a6aa8f;
      }

      .cls-2, .cls-3 {
        fill: #bea072;
      }

      .cls-3 {
        stroke: #bea072;
        stroke-linecap: round;
        stroke-miterlimit: 10;
        stroke-width: 1.04px;
      }
    </style>
  </defs>
  <g id="PC文字">
    <g>
      <path class="cls-1" d="m14.52,49.24c.24.04.48.68.48,1.12,0,.48.2,2.36.2,2.96,0,.92-.36,1.44-.88,1.44-.36,0-.64-.64-.72-.96-.8-2.56-2.48-3.92-4.96-3.92-2.24,0-3.84,1.88-3.84,3.8,0,2.32,1.04,3.52,4.4,5.44,4.08,2.28,6.72,4.24,6.72,8.04,0,2.68-1.88,4.56-3.16,5.4-1.44.92-3.84,1.52-5.56,1.52-2.08,0-5-.68-5.92-1.36-.2-.16-.44-.36-.64-.8-.48-1.08-.64-2.72-.64-3.68,0-.88.36-1.4.72-1.4.56,0,.76.48,1.08,1.08,1.48,3.32,4.04,4.48,6.16,4.48,1.64,0,3.92-1.24,3.92-3.96,0-1.84-.92-3.12-5.2-5.72-2.8-1.64-5.56-3.84-5.56-7.68,0-2.64,1.6-4.44,3.24-5.48,1.28-.76,3.08-1.28,5.04-1.28s3.68.6,5.12.96Z"/>
      <path class="cls-1" d="m22.76,48.8c.56,0,3.04.2,4.04.2,1.92,0,4.08-.08,4.52-.08.4,0,1.12.2,1.12.64,0,.52-.72.88-1.04.96-1.76.44-2.08.96-2.08,1.6,0,.52-.2,6.32-.08,7.68.04.2.16.32.44.32.16,0,.52-.12,1-.52,2.48-2.08,7-6.48,8.12-7.88.32-.4.16-.8-1.16-1.08-.76-.16-1.16-.48-1.16-.96,0-.24.32-.68,1.04-.68h2.12c2.4-.04,4.16-.28,5.76-.28,1.2,0,1.52.36,1.52.76,0,.28-.4.72-1.28.88-1.72.32-3.32,1.08-4.92,2.4-1.6,1.24-3.2,2.56-7.04,6.16-.08.12-.12.44,0,.6,3.24,3.76,7.72,8.32,9.32,9.88,1.52,1.52,2.52,1.96,4.2,2.52.92.32,1.2.52,1.2,1,0,.24-.44.72-1.2.72-1.88,0-5.76-.28-7.28-.28h-2c-.56,0-1.08-.36-1.08-.8,0-.32.36-.64,1.16-.88.84-.24,1-.68.52-1.28-1.52-1.8-6-6.52-7.92-8.48-.4-.4-.8-.56-.96-.56-.28,0-.4.32-.4.76,0,1.84-.04,5.36.12,7.44.12,1.76.88,1.88,2.32,2.24,1.12.24,1.36.6,1.36.96,0,.4-.56.76-1.12.76-.48,0-2.84-.16-4.08-.16-1.88,0-4.56.24-5.28.24-.52,0-1.24-.24-1.24-.72s.44-.72,1.12-.92c2.08-.52,2.56-.92,2.68-2.68.08-1.28.2-2.8.2-9.56,0-6.16,0-6.6-.08-7.4-.12-.72-.16-1.32-2.28-1.84-.92-.2-1.36-.56-1.36-.96,0-.32.52-.72,1.16-.72Z"/>
      <path class="cls-1" d="m70.1,48.84c.2,0,2.84.16,4.44.16s3.64-.16,4.44-.16c.84,0,1.16.24,1.16.72,0,.36-.4.72-1.12.88-1.88.4-2.36.88-2.48,2.12-.12.92-.2,2.36-.2,7.48,0,5.84.08,8.64.24,10.08,0,.36.72,1.2,1.72,1.44,1.56.32,4.6.12,5.16-.04,1.6-.52,2.72-1.64,3.8-3.8.4-.72.72-1,.96-1,.4,0,.76.76.72,1.28-.04.92-1,3.8-1.28,4.6-.24.6-.96.96-1.76.96-1.4,0-6.24-.2-11.2-.2-2.72,0-4.52.24-5.4.24s-1.32-.4-1.32-.76c0-.4.48-.76,1.16-.92,2.64-.64,2.84-1.44,3.04-2.36.08-.56.16-3.24.16-8,0-7.24-.08-7.88-.16-8.96-.12-1.32-.76-1.68-2.08-2.12-.88-.28-1.16-.56-1.16-1,0-.32.52-.64,1.16-.64Z"/>
      <path class="cls-1" d="m94.86,48.84c.2,0,2.84.16,4.44.16s3.64-.16,4.44-.16c.84,0,1.16.24,1.16.72,0,.36-.4.72-1.12.88-1.88.4-2.36.88-2.48,2.12-.12.92-.2,2.36-.2,7.48,0,5.84.08,8.64.24,10.08,0,.36.72,1.2,1.72,1.44,1.56.32,4.6.12,5.16-.04,1.6-.52,2.72-1.64,3.8-3.8.4-.72.72-1,.96-1,.4,0,.76.76.72,1.28-.04.92-1,3.8-1.28,4.6-.24.6-.96.96-1.76.96-1.4,0-6.24-.2-11.2-.2-2.72,0-4.52.24-5.4.24s-1.32-.4-1.32-.76c0-.4.48-.76,1.16-.92,2.64-.64,2.84-1.44,3.04-2.36.08-.56.16-3.24.16-8,0-7.24-.08-7.88-.16-8.96-.12-1.32-.76-1.68-2.08-2.12-.88-.28-1.16-.56-1.16-1,0-.32.52-.64,1.16-.64Z"/>
    </g>
    <g>
      <line class="cls-3" x1="62.01" y1=".52" x2="62.01" y2="39.48"/>
      <path class="cls-2" d="m62.87,39.01c0,3.48-1.94,6.14-3.24,7.22-1.32,1.11-2.78,1.26-3.4,1.26-1.16,0-2.81-.96-2.81-3.74,0-1.69.65-4.12,2-5.96,1.38-1.84,3.16-2.66,4.45-2.66,2.05,0,3,2.16,3,3.89Zm-4.99-1.17c-1.05,1.84-2.11,5.32-2.11,7.36,0,1.23.38,1.64.7,1.64.4,0,.86-.38,1.46-1.23,1.19-1.72,2.78-6.43,2.78-8.65,0-.91-.38-1.23-.65-1.23-.57,0-1.38.73-2.19,2.1Z"/>
    </g>
    <path class="cls-1" d="m55.41,57.01c0-3.01-.18-3.33-2.35-3.89-.59-.14-.88-.46-.88-.77,0-.28.63-.56,1.12-.56.67,0,2.1.1,3.64.1,2.1,0,3.15-.14,4.17-.14.42,0,.88.28.88.63s-.49.6-.77.67c-2,.49-2.1.88-2.21,2.7-.07,1.44-.04,5.15-.04,7.53,0,3.82.04,5.67.04,6.13.07,1.68.46,2.07,2.52,2.56.67.18.95.46.95.74,0,.46-.74.67-1.16.67-.35,0-3.01-.14-4.2-.14s-3.36.21-3.99.21c-.46,0-.98-.25-.98-.56s.42-.67.91-.84c1.75-.6,2-.91,2.14-1.65.1-.73.21-5.29.21-8.16v-5.22Z"/>
  </g>
</svg>