<?xml version="1.0" encoding="UTF-8"?>
<svg id="_レイヤー_2" data-name="レイヤー 2" xmlns="http://www.w3.org/2000/svg" viewBox="0 0 149.97 147.37">
  <defs>
    <style>
      .cls-1, .cls-2, .cls-3 {
        fill: #c4a672;
      }

      .cls-1, .cls-4, .cls-5 {
        stroke: #7f7f80;
        stroke-linecap: round;
        stroke-linejoin: round;
        stroke-width: .59px;
      }

      .cls-6 {
        fill: #323333;
      }

      .cls-7 {
        fill: #80807e;
      }

      .cls-8, .cls-5 {
        fill: #4d4d4d;
      }

      .cls-4 {
        fill: none;
      }

      .cls-3 {
        fill-rule: evenodd;
      }
    </style>
  </defs>
  <g id="PC文字">
    <g id="color_2" data-name="color 2">
      <path id="Vector" class="cls-2" d="m71.09,8.95c-5.86.16-10.49,4.64-10.32,9.99.18,6.23,6.59,10.52,13.02,9.11l-.34-4.04c-.07-.67-.02-1.35.17-2,.19-.65.5-1.25.92-1.78.42-.53.94-.96,1.53-1.29.59-.33,1.24-.53,1.91-.6l3.98-.34c-.33-5.19-5.13-9.22-10.87-9.05Z"/>
      <path id="Subtract" class="cls-3" d="m65.54,113.65l47.79-4.03c1.31-.11,2.51-.74,3.36-1.74.85-1,1.26-2.3,1.15-3.6l-2.77-32.59c-.11-1.31-.74-2.51-1.74-3.36-1-.84-2.3-1.26-3.6-1.15l-25.54,2.15c-.45.69-.75,1.05-1.42,1.58-.73.56-1.58.93-2.48,1.09-.9.16-1.83.11-2.7-.16-.88-.27-1.68-.74-2.33-1.37-.12-.11-.23-.23-.35-.35l-7.97.67c2.64,9.38,2.92,15.89,3.11,25.18.16,2.73-.21,5.47-1.1,8.06l-3.41,9.61Zm27.84-21.21l4.82,2.25-.87-10.23-4.37,3.04c-.15-.96-.67-1.83-1.44-2.43-.77-.6-1.74-.89-2.71-.8l-9.32.81c-.51.04-1,.18-1.45.42-.45.23-.85.56-1.18.95-.33.39-.57.84-.73,1.33-.15.49-.21,1-.16,1.5l.37,4.32c.04.51.18,1,.42,1.45.23.45.56.85.95,1.18.39.33.84.57,1.33.73.49.15,1,.21,1.5.16l9.31-.78c.51-.04,1-.19,1.45-.42s.85-.56,1.18-.95.57-.84.73-1.32c.12-.39.18-.8.18-1.2h0Z"/>
      <path id="Vector_2" data-name="Vector 2" class="cls-7" d="m128.4,71.82c.04.36.01.72-.09,1.06-.1.34-.27.67-.49.95-.22.28-.5.51-.82.68-.31.17-.66.28-1.02.32-.36.04-.72,0-1.06-.1-.34-.1-.66-.27-.94-.5-.28-.23-.51-.51-.68-.82-.17-.32-.27-.66-.31-1.02l-.43-4.09c-.07-.71.15-1.42.6-1.98.45-.55,1.11-.91,1.82-.98.71-.07,1.42.13,1.98.58.56.45.92,1.1,1,1.81l.43,4.09Z"/>
    </g>
    <g id="color_1" data-name="color 1">
      <path id="Vector_3" data-name="Vector 3" class="cls-6" d="m98.47,22.55c.23.54.41,1.11.52,1.69.45-.94.71-1.96.78-2.99-.46.51-.9.94-1.3,1.31Z"/>
      <path id="Vector_4" data-name="Vector 4" class="cls-6" d="m57.91,43.06c.13.71.37,1.39.72,2.01,1.15,0,2.42-.15,2.73-.61.04-.08.09-.16.13-.25-.43.85-2-.01-3.58-1.15Z"/>
      <path id="Vector_5" data-name="Vector 5" class="cls-8" d="m18.43,76.24c-2.77-3.98-20.42,10.56-17.89,14.23l.43.39c3.67,2.04,19.62-11.49,17.45-14.62Z"/>
      <path id="Vector_6" data-name="Vector 6" class="cls-8" d="m48.62,127.58c-3.63,1.72,7.59,21.95,11.01,19.08,2.05-2.97-8.14-20.45-11.01-19.08Z"/>
      <path id="Vector_7" data-name="Vector 7" class="cls-6" d="m14.51,88.89c-.07.26-.09.53-.06.79.15.95,1.37,1,2.19.78-.57-.69-1.31-1.22-2.13-1.57Z"/>
      <path id="Vector_8" data-name="Vector 8" class="cls-6" d="m22.43,81.1c.57.7,1.15,1.4,1.67,2.04.09-.25.14-.51.16-.78.01-.22-.03-.45-.13-.65-.1-.2-.25-.38-.43-.5-.18-.13-.4-.21-.62-.23-.22-.02-.45.02-.65.11Z"/>
      <path id="Vector_9" data-name="Vector 9" class="cls-8" d="m49.58,50.88c-.17.02-.32.08-.45.19-.13.11-.22.25-.27.41-.05.16-.05.33,0,.49.05.16.15.3.27.4.13.1.29.17.45.18.17.01.33-.02.48-.1.15-.08.26-.2.34-.35.08-.15.11-.31.09-.48-.01-.11-.04-.22-.09-.32-.05-.1-.12-.18-.21-.25-.09-.07-.19-.12-.29-.15-.11-.03-.22-.04-.33-.03Z"/>
      <path id="Vector_10" data-name="Vector 10" class="cls-8" d="m43.61,57.82c-.17.02-.32.08-.45.19-.13.11-.22.25-.27.41-.05.16-.05.33,0,.49.05.16.15.3.27.4.13.1.29.17.45.18.17.01.33-.02.48-.1.15-.08.26-.2.34-.35.08-.15.11-.31.09-.48-.01-.11-.04-.22-.1-.31-.05-.1-.12-.18-.21-.25-.09-.07-.18-.12-.29-.15-.11-.03-.22-.04-.33-.03Z"/>
      <path id="Vector_11" data-name="Vector 11" class="cls-8" d="m47.14,66.98c-.17.02-.32.08-.45.19-.13.11-.22.25-.27.41-.05.16-.05.33,0,.49.05.16.15.3.27.4.13.1.29.17.45.18.17.01.33-.02.48-.1.15-.08.26-.2.34-.35.08-.15.11-.31.09-.48-.01-.11-.04-.22-.1-.31-.05-.1-.12-.18-.21-.25-.09-.07-.18-.12-.29-.15-.11-.03-.22-.04-.33-.03Z"/>
      <path id="Vector_12" data-name="Vector 12" class="cls-8" d="m39.39,56.23c-.17.02-.32.08-.45.19-.13.11-.22.25-.27.41-.05.16-.05.33,0,.49.05.16.15.3.27.4.13.1.29.17.45.18.17.01.33-.02.48-.1.15-.08.27-.2.34-.35.08-.15.11-.31.09-.48-.01-.11-.04-.22-.1-.31-.05-.1-.12-.18-.21-.25-.09-.07-.18-.12-.29-.15-.11-.03-.22-.04-.33-.03Z"/>
      <path id="Vector_13" data-name="Vector 13" class="cls-8" d="m56.68,54.16c-.17.02-.32.08-.45.19s-.22.25-.27.41c-.05.16-.05.33,0,.49.05.16.15.3.27.4.13.1.29.17.45.18.17.01.33-.02.48-.1.15-.08.26-.2.34-.35.08-.15.11-.31.09-.48-.01-.11-.04-.22-.1-.31-.05-.1-.12-.18-.21-.25-.09-.07-.18-.12-.29-.15-.11-.03-.22-.04-.33-.03Z"/>
      <path id="Vector_14" data-name="Vector 14" class="cls-8" d="m51.81,60.96c-.17.02-.32.08-.45.19-.13.11-.22.25-.27.41-.05.16-.05.33,0,.49.05.16.15.3.27.4.13.1.29.17.45.18.17.01.33-.02.48-.1.15-.08.26-.2.34-.35.08-.15.11-.31.09-.48-.01-.11-.04-.22-.1-.31-.05-.1-.12-.18-.21-.25-.09-.07-.18-.12-.29-.15-.11-.03-.22-.04-.33-.03Z"/>
      <path id="Vector_15" data-name="Vector 15" class="cls-8" d="m60.54,64.13c-.17.02-.32.08-.45.19-.13.11-.22.25-.27.41-.05.16-.05.33,0,.49.05.16.15.3.27.4.13.1.29.17.45.18.17.01.33-.02.48-.1.15-.08.27-.2.34-.35.08-.15.11-.31.09-.48-.01-.11-.04-.22-.1-.31-.05-.1-.12-.18-.21-.25-.09-.07-.18-.12-.29-.15-.11-.03-.22-.04-.33-.03Z"/>
      <path id="Vector_16" data-name="Vector 16" class="cls-8" d="m64.17,49.66c-.17.02-.32.08-.45.19-.13.11-.22.25-.27.41-.05.16-.05.33,0,.49.05.16.15.3.27.4.13.1.29.17.45.18.17.01.33-.02.48-.1.15-.08.27-.2.34-.35.08-.15.11-.31.09-.48-.01-.11-.04-.22-.09-.32-.05-.1-.12-.18-.21-.25-.09-.07-.19-.12-.29-.15-.11-.03-.22-.04-.33-.03Z"/>
      <path id="Vector_17" data-name="Vector 17" class="cls-8" d="m71.98,63.77c-.17.02-.32.08-.45.19-.13.11-.22.25-.27.41-.05.16-.05.33,0,.49.05.16.15.3.27.4.13.1.29.17.45.18.17.01.33-.02.48-.1.15-.08.27-.2.34-.35.08-.15.11-.31.09-.48-.02-.22-.13-.42-.31-.56-.17-.14-.4-.21-.62-.18Z"/>
      <path id="Vector_18" data-name="Vector 18" class="cls-8" d="m72.01,55.94c.11-.01.22-.04.31-.1.1-.05.18-.12.25-.21.07-.09.12-.18.15-.29.03-.11.04-.22.03-.33-.03-.22-.14-.41-.31-.55s-.39-.2-.61-.17c-.22.02-.42.13-.56.3-.14.17-.21.38-.19.6.01.11.04.22.1.31.05.1.12.18.21.25.09.07.18.12.29.15.11.03.22.04.33.03Z"/>
      <path id="Vector_19" data-name="Vector 19" class="cls-8" d="m81.13,65.54c-.17.02-.32.08-.45.19-.13.11-.22.25-.27.41-.05.16-.05.33,0,.49.05.16.14.3.27.4.13.1.29.17.45.18.17.01.33-.02.48-.1.15-.08.26-.2.34-.35.08-.15.11-.31.09-.48-.01-.11-.04-.22-.1-.31-.05-.1-.12-.18-.21-.25-.09-.07-.18-.12-.29-.15-.11-.03-.22-.04-.33-.03Z"/>
      <path id="Vector_20" data-name="Vector 20" class="cls-8" d="m82.17,56.65c-.17.02-.32.08-.45.19-.13.11-.22.25-.27.41-.05.16-.05.33,0,.49.05.16.15.3.27.4.13.1.29.17.45.18.17.01.33-.02.48-.1.15-.08.26-.2.34-.35.08-.15.11-.31.09-.48-.01-.11-.04-.22-.1-.31-.05-.1-.12-.18-.21-.25-.09-.07-.18-.12-.29-.15-.11-.03-.22-.04-.33-.03Z"/>
      <path id="Vector_21" data-name="Vector 21" class="cls-8" d="m89.63,53.67c-.02-.17-.08-.32-.19-.45-.11-.13-.25-.22-.41-.27-.16-.05-.33-.05-.49,0-.16.05-.3.15-.4.27-.1.13-.17.29-.18.45-.01.17.02.33.1.48.08.15.2.27.35.34.15.08.31.11.48.09.11-.01.22-.04.31-.1.1-.05.18-.12.25-.21.07-.09.12-.18.15-.29.03-.11.04-.22.03-.33Z"/>
      <path id="Vector_22" data-name="Vector 22" class="cls-8" d="m114.53,6.99c-.09-1.16-.59-2.24-1.41-3.06-.82-.82-1.91-1.32-3.06-1.41-1.16-.09-2.31.23-3.25.91-.94.68-1.6,1.67-1.88,2.8-1.35-.63-2.83-.9-4.32-.78-1.48.11-2.91.61-4.15,1.43-1.24.83-2.24,1.96-2.91,3.28-.67,1.33-.99,2.8-.93,4.29,1.8-.49,3.64-.77,5.5-.84.1.61.24,1.22.42,1.81.16.37.42.4.86-.28,1-1.45,3.03.79.66,2.52,1.02,1.77,2.32,3.37,3.85,4.73,1.87-.6,3.49-1.82,4.58-3.46,1.09-1.64,1.59-3.6,1.42-5.56-.03-.36-.08-.72-.16-1.07.11,0,.21,0,.32-.02.64-.06,1.26-.24,1.83-.53.57-.3,1.07-.7,1.49-1.19.41-.49.72-1.06.92-1.67.19-.61.26-1.25.21-1.89Z"/>
      <path id="Vector_23" data-name="Vector 23" class="cls-6" d="m51.31,85.59l.16,6.05,2.13-1.92c-.93-1.28-1.7-2.67-2.3-4.13Z"/>
      <path id="Vector_24" data-name="Vector 24" class="cls-6" d="m65,57.95l2.12,3.01.12,3.86-2.24-6.88Z"/>
      <path id="Vector_25" data-name="Vector 25" class="cls-8" d="m61.35,37.53c.26-.05.49-.19.66-.39.17-.2.26-.46.25-.73,0-.26-.1-.52-.28-.71-.18-.2-.41-.33-.68-.36.2-.15.35-.36.42-.6.07-.24.05-.5-.05-.73-.1-.23-.27-.42-.49-.54-.22-.12-.47-.17-.72-.13.13-.21.18-.46.15-.7-.03-.24-.13-.47-.3-.65s-.39-.29-.64-.33c-.24-.04-.49,0-.71.13.05-.25.02-.51-.1-.74-.12-.23-.31-.41-.54-.51-.23-.1-.5-.12-.74-.06-.25.07-.46.22-.61.42-.02-.27-.14-.52-.33-.71-.19-.19-.44-.31-.71-.34-.27-.03-.54.04-.76.19-.22.15-.39.38-.46.63-.11-.23-.29-.42-.52-.54-.23-.11-.49-.15-.74-.09-.25.05-.47.19-.63.39-.16.2-.25.45-.25.7-.19-.16-.42-.25-.66-.27-.25-.01-.49.05-.69.19-.2.14-.36.34-.43.57-.08.23-.08.48,0,.72-.23-.09-.49-.09-.72-.02-.24.07-.44.23-.58.43-.14.2-.21.45-.19.7.01.25.11.48.27.67-.26-.01-.52.06-.73.22-.21.16-.36.39-.42.64-.06.26-.03.53.1.76.12.23.32.42.56.52-.26.05-.49.19-.66.4s-.25.46-.24.73c0,.26.11.52.28.71.18.2.42.32.68.36-.2.15-.34.36-.4.6-.06.24-.04.49.05.72.1.23.27.42.49.54.22.12.47.16.71.12-.12.21-.17.46-.14.7.03.24.14.47.31.64.17.17.4.29.64.32.24.03.49-.01.7-.13-.05.25-.01.51.11.73.12.23.31.4.54.5.23.1.49.12.74.05.25-.07.46-.22.61-.42.01.19.07.37.17.52.1.16.24.29.4.38.16.09.35.14.53.15.19,0,.37-.04.54-.12.13-.16,1.97-2.42,2.61-3.24-1.58-1.79-.27-2.95.58-1.77.45.64,1.1.46.72-1.45.49-.21.97-.47,1.42-.78.31,1.21.55,2.24.75,3.1.23-.06.43-.19.58-.37s.24-.4.26-.64c.02-.23-.04-.47-.16-.67-.12-.2-.3-.36-.52-.45Z"/>
    </g>
    <g id="outlines">
      <path id="Vector_26" data-name="Vector 26" class="cls-4" d="m61.2,39.65c-.19-.86-.43-1.89-.75-3.1-.45.3-.92.56-1.42.78.39,1.91-.26,2.09-.72,1.45-.84-1.19-2.16-.01-.58,1.77-.64.82-2.48,3.07-2.61,3.24-.17.09-.35.13-.54.12-.19,0-.37-.05-.53-.15-.16-.09-.3-.22-.4-.38-.1-.16-.16-.34-.17-.52-.15.21-.36.36-.61.42-.25.07-.51.05-.74-.05-.23-.1-.43-.28-.54-.5-.12-.23-.16-.48-.11-.73-.21.12-.46.17-.7.13-.24-.03-.47-.15-.64-.32-.17-.17-.28-.4-.31-.64-.03-.24.02-.49.14-.7-.25.04-.5,0-.71-.12-.22-.12-.39-.31-.49-.54-.1-.23-.12-.48-.05-.72.06-.24.21-.45.4-.6-.26-.04-.5-.16-.68-.36-.18-.2-.28-.45-.28-.71,0-.26.08-.52.24-.73.16-.21.4-.35.66-.4-.24-.1-.44-.29-.56-.52-.12-.23-.15-.5-.1-.76.06-.26.21-.48.42-.64.21-.16.47-.24.73-.22-.16-.19-.26-.42-.27-.67-.01-.25.05-.49.19-.7.14-.2.34-.35.58-.43s.49-.07.72.02c-.08-.23-.08-.48,0-.71.08-.23.23-.43.43-.57.2-.14.44-.2.69-.19.24.01.48.11.66.26,0-.26.09-.5.25-.7.16-.2.38-.34.63-.39s.51-.02.74.09.41.3.52.54c.08-.26.24-.48.46-.63.22-.15.49-.22.76-.19.27.03.52.15.71.34.19.19.31.44.33.71.15-.21.37-.36.61-.42.25-.07.51-.05.74.06.23.1.43.28.54.51.12.23.15.49.1.74.21-.12.46-.16.71-.13.24.04.47.15.64.33s.28.4.3.65c.03.24-.03.49-.15.7.25-.04.5,0,.72.13s.39.31.49.54c.1.23.11.49.05.73-.07.24-.21.45-.42.6.26.04.5.17.68.36.18.2.27.45.28.71,0,.26-.08.52-.25.73-.17.2-.4.34-.66.39.21.09.39.25.52.45.12.2.18.43.16.66-.02.23-.11.45-.25.63-.15.18-.35.31-.57.37Z"/>
      <path id="Vector_27" data-name="Vector 27" class="cls-4" d="m61.38,33.53l4-.33c.48-.04.96.01,1.41.16.46.14.88.38,1.25.69.37.31.67.69.89,1.11.22.43.35.89.39,1.37l1.09,13.08"/>
      <path id="Vector_28" data-name="Vector 28" class="cls-4" d="m67.39,64.62l.61-.04c.53,0,1.06-.16,1.51-.45"/>
      <path id="Vector_29" data-name="Vector 29" class="cls-4" d="m39.7,66.94l-8.03.69c-.96.08-1.92-.22-2.66-.85-.74-.62-1.2-1.51-1.28-2.48l-2.04-24.11c-.08-.96.22-1.92.85-2.66s1.52-1.2,2.48-1.28l19.62-1.65"/>
      <path id="Vector_30" data-name="Vector 30" class="cls-4" d="m65.54,113.65l47.79-4.03c1.31-.11,2.51-.74,3.36-1.74.85-1,1.26-2.3,1.15-3.6l-2.77-32.59c-.11-1.31-.74-2.51-1.74-3.36-1-.84-2.3-1.26-3.6-1.15l-25.54,2.15"/>
      <path id="Vector_31" data-name="Vector 31" class="cls-4" d="m66.95,70.79l7.94-.67"/>
      <path id="Vector_32" data-name="Vector 32" class="cls-4" d="m92.7,17.07l-14.74,1.27c-1.35.15-2.59.83-3.44,1.89-.85,1.06-1.25,2.41-1.1,3.76l2.95,34"/>
      <path id="Vector_33" data-name="Vector 33" class="cls-4" d="m87.03,62.98l44.71-3.86c.99-.09,1.93-.48,2.7-1.11.77-.63,1.33-1.48,1.61-2.44"/>
      <path id="Vector_34" data-name="Vector 34" class="cls-4" d="m134.62,34.26l-1.33-15.44c-.09-1.36-.71-2.62-1.73-3.52-1.02-.9-2.36-1.35-3.71-1.27l-18,1.55"/>
      <path id="Vector_35" data-name="Vector 35" class="cls-4" d="m118.25,38.75c-1.54,2.42-4.77,9.47-6.65,14.05,3.61,1.41,6.65,3.98,8.65,7.29"/>
      <path id="Vector_36" data-name="Vector 36" class="cls-4" d="m94.22,46.48c.55,2.81,1.26,5.58,2.13,8.31-.82,3.09-1.15,5.83-1.54,7.52"/>
      <path id="Vector_37" data-name="Vector 37" class="cls-4" d="m95.66,34.99c-1.13,1.74-1.78,3.74-1.91,5.8"/>
      <path id="Vector_38" data-name="Vector 38" class="cls-4" d="m111.59,52.82c-4.21,3.03-12.16,4.64-15.23,1.97"/>
      <path id="Vector_39" data-name="Vector 39" class="cls-4" d="m109.68,53.97c2.24,1.75,4.04,4.01,5.25,6.59"/>
      <path id="Vector_40" data-name="Vector 40" class="cls-4" d="m99.01,24.22c.44-.94.7-1.95.77-2.98-.46.51-.9.94-1.3,1.31"/>
      <path id="Vector_41" data-name="Vector 41" class="cls-4" d="m116.12,42.75l5.34,9.02c4.13,7.49,12.74,9.84,18.14-1.34,2.55-5.28,3.76-8.83,6-12.5-3.66-1.04-6.99-3-9.68-5.7-2.48,3.74-4.69,7.65-6.61,11.71-10.81-22.99-12.14-18.93-19.35-19.33-2.2-.06-4.32-.84-6.03-2.22"/>
      <path id="Vector_42" data-name="Vector 42" class="cls-4" d="m88.18,42.93c2.13-7.25,6.91-10.6,9.01-12.89.99-.95,1.64-2.19,1.88-3.53.23-1.35.02-2.73-.59-3.96-3.76,3.31-5.83.67-5.83-8.1"/>
      <path id="Vector_43" data-name="Vector 43" class="cls-4" d="m110.87,24.64c-2.99,2.4-5.69,5.15-8.04,8.18-.37.46-.85.81-1.4,1.03-.55.22-1.14.29-1.72.21-.58-.08-1.14-.31-1.6-.67s-.83-.83-1.06-1.37c-.19-.45-.36-.86-.51-1.27"/>
      <path id="Vector_44" data-name="Vector 44" class="cls-4" d="m129.31,43.94l-1.77,4"/>
      <path id="Vector_45" data-name="Vector 45" class="cls-4" d="m55.13,43.78c-2.09,2.67-3.56,2.5-7.49,4.25-8,3.57-5.25,17.86-5.25,17.86"/>
      <path id="Vector_46" data-name="Vector 46" class="cls-4" d="m61.2,39.65c.65,3.02.59,4.18.16,4.8-.31.46-1.58.61-2.73.61"/>
      <path id="Vector_47" data-name="Vector 47" class="cls-4" d="m61.5,44.2c-.42.86-2,0-3.58-1.15.3,1.37.51,3.02,1.63,3.09,9.92.62,10.96,1.75,19.57,16.51"/>
      <path id="Vector_48" data-name="Vector 48" class="cls-4" d="m78.05,60.81c.37-1.04,2.68-5.8,4.03-10.1,2.94-.32,5.9.45,8.31,2.16-.93,4.39-3.61,11.04-5.92,15.93-.39.83-.98,1.55-1.7,2.1-.73.56-1.58.93-2.48,1.09-.9.16-1.83.11-2.7-.16-.88-.27-1.68-.74-2.33-1.37-3.86-3.8-7.29-8.01-10.23-12.56"/>
      <path id="Vector_49" data-name="Vector 49" class="cls-4" d="m65.03,57.92l2.21,6.91"/>
      <path id="Vector_50" data-name="Vector 50" class="cls-4" d="m48.73,70.47c4.43,1.42,12.01.88,17.93-.73.89-1.76.52-8.71.52-8.71"/>
      <path id="Vector_51" data-name="Vector 51" class="cls-4" d="m48.68,70.12c-1.91,2.74-5.66,2.85-7.38-.01-2.17-3.62-3.1-8.77-3.56-14.5,0,0,3.38-1.08,4.8-.66"/>
      <path id="Vector_52" data-name="Vector 52" class="cls-4" d="m53.6,89.72l-15.75,13.95c-1.04.92-2.38,1.42-3.77,1.43-1.39,0-2.73-.49-3.78-1.4l-15.5-13.41"/>
      <path id="Vector_53" data-name="Vector 53" class="cls-4" d="m35.63,92.42l-11.73-11.05"/>
      <path id="Vector_54" data-name="Vector 54" class="cls-4" d="m46.28,55.5s2.59,10.46,2.43,15.23c-3.16,1.79-5.6,4.62-6.9,8.01-1.91,5.15-8.5,11.41-8.5,11.41"/>
      <path id="Vector_55" data-name="Vector 55" class="cls-4" d="m66.66,69.74c2.92,9.95,3.21,16.59,3.42,26.22.16,2.73-.21,5.47-1.1,8.06l-6.83,19.21c-4.18-.44-8.19-1.85-11.73-4.13l6.83-19.57c.13-3.34-.99-6.61-3.14-9.17-2.13-2.6-3.47-5.76-3.85-9.1"/>
      <path id="Vector_56" data-name="Vector 56" class="cls-4" d="m51.69,46.43s2.39,2.63,8.05-.28"/>
      <path id="Vector_57" data-name="Vector 57" class="cls-4" d="m38.91,55.27c-.05-2.28-.3-4.54-.76-6.77-.44-1.72-1.07-3.38-1.88-4.95-1.19-2.31-.8-2.94,1.1-.83,1.88,2.36,3.43,4.97,4.61,7.76"/>
      <path id="Vector_58" data-name="Vector 58" class="cls-4" d="m41.32,48.99c.95,1.07,1.51-2.2,1.87-2.93.49-1,1.1-2.09,1.06.99-.01.85.09,2.21.22,3.55"/>
      <path id="Vector_59" data-name="Vector 59" class="cls-4" d="m37.25,45.73c-.43-.48-1.42-1.43-1.7-1.7-1.3-1.25-1.56-.81-1.42-.55.57.99,1.63,2.52,2.12,3.46.79,1.52,2.4,4.42,2.49,5.91"/>
      <path id="Vector_60" data-name="Vector 60" class="cls-4" d="m36.21,46.85c-.25-.18-.46-.33-.58-.4-1.51-.99-1.67-.54-1.49-.31.72.89,2.02,2.22,2.66,3.07.75,1.05,1.4,2.17,1.94,3.34"/>
      <path id="Vector_61" data-name="Vector 61" class="cls-4" d="m89.69,52.39c.8-2.39,1.81-4.7,3.01-6.91,1.02-1.67,2.23-3.21,3.59-4.61,2.01-2.04,1.81-2.85-.89-1.25-2.76,1.88-5.25,4.13-7.4,6.68"/>
      <path id="Vector_62" data-name="Vector 62" class="cls-4" d="m89.26,44.88c-1.5,1.12-.95-2.71-1.09-3.61-.19-1.21-.46-2.57-1.43.7-.27.89-1.36,3.66-3.41,8.67"/>
      <path id="Vector_63" data-name="Vector 63" class="cls-4" d="m94.54,42.85c.61-.37,1.95-1.04,2.34-1.24,1.79-.9,1.91-.33,1.69-.12-.92.87-2.53,2.13-3.36,2.97-1.33,1.35-3.97,3.88-4.56,5.43"/>
      <path id="Vector_64" data-name="Vector 64" class="cls-4" d="m95.28,44.39c.33-.1.6-.19.75-.24,1.91-.59,1.94-.02,1.67.16-1.05.71-2.85,1.69-3.8,2.39-1.13.87-2.18,1.83-3.13,2.89"/>
      <path id="Vector_65" data-name="Vector 65" class="cls-4" d="m18.43,76.24c-2.66-3.81-18.93,9.34-18.1,13.7.13.67.71,1.28,2.07,1.09,5.23-.71,17.99-11.97,16.03-14.79Z"/>
      <path id="Vector_66" data-name="Vector 66" class="cls-4" d="m18.43,76.24c.82,1.04,3.64,4.42,5.65,6.92"/>
      <path id="Vector_67" data-name="Vector 67" class="cls-4" d="m60.5,123.02c-.63,2.37-4.16,7.58-1.45,14.25,1.39,3.42,2.19,8.4.31,9.65"/>
      <path id="Vector_68" data-name="Vector 68" class="cls-4" d="m48.14,128.03c.45-1.01,2.07-4.68,3.52-8.1"/>
      <path id="Vector_69" data-name="Vector 69" class="cls-4" d="m48.62,127.58c-3.34,1.59,5.57,17.89,9.65,19.38,1.13.41,1.67-.39,1.62-1.59-.19-4.98-8.7-19.01-11.27-17.79Z"/>
      <path id="Vector_70" data-name="Vector 70" class="cls-4" d="m22.41,81.1c.2-.09.43-.13.65-.11.22.02.44.1.62.23.18.13.33.3.43.5.1.2.14.43.13.65-.25,3.14-6.09,8.53-8.72,8.21-.79-.1-1.28-.65-1.02-1.71"/>
      <path id="Vector_71" data-name="Vector 71" class="cls-4" d="m61.21,117.67l4.58-14.48c.79-2.26,1.13-4.66.98-7.06-.63-10.37-1.4-18.38-3.27-25.67"/>
      <path id="Vector_72" data-name="Vector 72" class="cls-4" d="m52.28,113.76c3.39,2.58,7.49,4.04,11.74,4.19"/>
      <path id="Vector_73" data-name="Vector 73" class="cls-4" d="m19.22,94.11c4.52-1.45,7.06-4.72,8.58-8.98"/>
      <path id="Vector_74" data-name="Vector 74" class="cls-4" d="m51.31,85.59l-12.69,11.25c-1.04.93-2.39,1.45-3.79,1.45-1.4,0-2.75-.5-3.8-1.42l-6.7-5.88"/>
      <path id="Vector_75" data-name="Vector 75" class="cls-4" d="m53.45,74.43c-.19.03-.48,3.79.03,5.31.97,1.34,2.21,2.46,3.64,3.3.82-1.36,1.8-2.62,2.92-3.74-.15-1.89-.33-2.89-.54-4.89-2.01.29-4.05.3-6.06.03h0Z"/>
      <path id="Vector_76" data-name="Vector 76" class="cls-4" d="m45,73.67c.77.01,1.52.21,2.19.57-1.37.67-2.76,4.09-2.76,4.09l-3.06,1.46"/>
      <path id="Vector_77" data-name="Vector 77" class="cls-4" d="m142.05,24.94c2.36.75,3.67,1.95,5.19,3.89"/>
      <path id="Vector_78" data-name="Vector 78" class="cls-4" d="m141.47,26.04c.82.84,1.46,1.83,1.88,2.93.42,1.1.6,2.27.54,3.44"/>
      <path id="Vector_79" data-name="Vector 79" class="cls-4" d="m146,27.35c.92-1.21,1.68-2.52,2.28-3.91,1.1-2.58,1.78-1.86,1.16.58-.16.66-.33,1.22-.48,1.7-.43,1.37-.86,2.76-1.25,4.15-.42,1.47-3.22,7.71-3.22,7.71-2.63-.7-5.36-2.61-7.49-4.37.04-.09,1.18-2.18,1.22-2.25.23-.42.33-.9.28-1.37-.05-.47-.24-.92-.55-1.29-1.08-1.29-2.52-3.22-2.04-3.74.74-.81,3.09,1.92,4.34,2.09.45.06.81-1.3.88-1.79.14-.89.61-3.94.64-4.24.32-2.77,1.31-2.3,1.3.15-.01,2.33-.01,3.83-.01,3.83"/>
      <path id="Vector_80" data-name="Vector 80" class="cls-4" d="m142.87,25.21s1.63-5.1,1.73-5.44c.81-2.67,1.66-2.06,1.25.34-.39,2.3-.81,5.1-.81,5.1"/>
      <path id="Vector_81" data-name="Vector 81" class="cls-4" d="m144.65,26.03c.78-1.56,1.47-3.16,2.06-4.8.97-2.63,1.68-1.96,1.22.43-.25,1.48-.6,2.95-1.06,4.39"/>
      <path id="Vector_82" data-name="Vector 82" class="cls-1" d="m128.4,71.82c.04.36.01.72-.09,1.06-.1.34-.27.67-.49.95-.22.28-.5.51-.82.68-.31.17-.66.28-1.02.32-.36.04-.72,0-1.06-.1-.34-.1-.66-.27-.94-.5-.28-.23-.51-.51-.68-.82-.17-.32-.27-.66-.31-1.02l-.43-4.09c-.07-.71.15-1.42.6-1.98.45-.55,1.11-.91,1.82-.98.71-.07,1.42.13,1.98.58.56.45.92,1.1,1,1.81l.43,4.09Z"/>
      <path id="Vector_83" data-name="Vector 83" class="cls-4" d="m120.79,70.75l.21,2.01c.06.62.25,1.22.55,1.77.3.55.7,1.03,1.18,1.42.48.39,1.04.68,1.64.86.6.18,1.22.24,1.84.17.62-.07,1.22-.25,1.77-.55.55-.3,1.03-.7,1.42-1.18.39-.48.68-1.04.86-1.64.18-.6.24-1.22.17-1.84l-.21-2.01"/>
      <path id="Vector_84" data-name="Vector 84" class="cls-4" d="m126.21,76.98l.4,3.76"/>
      <path id="Vector_85" data-name="Vector 85" class="cls-4" d="m124.6,80.95l4.01-.42"/>
      <path id="Vector_86" data-name="Vector 86" class="cls-4" d="m93.37,92.44l4.82,2.25-.87-10.23-4.37,3.04"/>
      <path id="Vector_87" data-name="Vector 87" class="cls-4" d="m88.81,84.26c.97-.08,1.94.2,2.71.8.77.6,1.28,1.47,1.44,2.43l.4,4.64c.04.51-.01,1.02-.16,1.5-.15.49-.4.94-.73,1.32s-.73.71-1.18.95-.95.38-1.45.42l-9.31.78c-.51.05-1.02,0-1.5-.16-.49-.15-.94-.4-1.33-.73-.39-.33-.71-.73-.95-1.18-.23-.45-.38-.95-.42-1.45l-.37-4.32c-.05-.51,0-1.02.16-1.5.15-.49.4-.94.73-1.33.33-.39.73-.71,1.18-.95.45-.23.95-.38,1.45-.42l9.32-.81Z"/>
      <path id="Vector_88" data-name="Vector 88" class="cls-4" d="m114.53,6.99c-.09-1.15-.59-2.24-1.41-3.06-.82-.82-1.9-1.32-3.06-1.41-1.15-.09-2.3.23-3.24.9-.94.68-1.61,1.67-1.88,2.79,1.22.57,2.3,1.41,3.14,2.46.84,1.05,1.43,2.29,1.71,3.61.67-.02,1.32-.17,1.93-.45.61-.28,1.15-.68,1.59-1.18.44-.5.78-1.08.99-1.71.21-.63.29-1.3.23-1.96h0Z"/>
      <path id="Vector_89" data-name="Vector 89" class="cls-5" d="m109.92,13.36c-.19-2.26-1.25-4.36-2.97-5.84-1.72-1.48-3.94-2.23-6.21-2.09-2.26.14-4.38,1.17-5.9,2.85-1.52,1.69-2.31,3.9-2.21,6.16,1.8-.49,3.64-.77,5.5-.84.1.61.24,1.22.42,1.81.16.37.42.4.86-.28,1-1.45,3.03.79.66,2.52,1.02,1.77,2.32,3.37,3.85,4.73,1.87-.6,3.49-1.83,4.58-3.47,1.09-1.64,1.59-3.6,1.42-5.56Z"/>
      <path id="Vector_90" data-name="Vector 90" class="cls-4" d="m10.03,63.71l3.12-.31"/>
      <path id="Vector_91" data-name="Vector 91" class="cls-4" d="m18.67,62.83l3.12-.31"/>
      <path id="Vector_92" data-name="Vector 92" class="cls-4" d="m15.31,57.23l.31,3.12"/>
      <path id="Vector_93" data-name="Vector 93" class="cls-4" d="m16.19,65.87l.31,3.12"/>
      <path id="Vector_94" data-name="Vector 94" class="cls-4" d="m11.33,59.38l2.43,1.97"/>
      <path id="Vector_95" data-name="Vector 95" class="cls-4" d="m18.06,64.86l2.43,1.98"/>
      <path id="Vector_96" data-name="Vector 96" class="cls-4" d="m19.64,58.53l-1.97,2.43"/>
      <path id="Vector_97" data-name="Vector 97" class="cls-4" d="m14.16,65.26l-1.98,2.43"/>
      <path id="Vector_98" data-name="Vector 98" class="cls-4" d="m82.26,28l-1.81-4.42c1.11-1.64,1.64-3.6,1.52-5.58-.33-5.19-5.15-9.22-10.89-9.05-5.86.16-10.49,4.64-10.32,9.99.16,5.65,5.45,9.7,11.23,9.36,2.07-.13,4.07-.82,5.78-1.99l4.49,1.69Z"/>
      <path id="Vector_99" data-name="Vector 99" class="cls-4" d="m47.89,25.74c-.28.26-.62.44-1,.51-.38.07-.76.02-1.11-.13-.35-.15-.65-.41-.85-.73-.21-.32-.31-.7-.3-1.08,0-.38.13-.75.35-1.07.22-.31.53-.55.88-.69.36-.14.74-.17,1.12-.09.37.08.71.27.98.55.35.37.54.87.53,1.38-.01.51-.22,1-.59,1.35h0Z"/>
      <path id="Vector_100" data-name="Vector 100" class="cls-4" d="m127.67.29l.67,8.15"/>
      <path id="Vector_101" data-name="Vector 101" class="cls-4" d="m132.08,4.02l-8.14.69"/>
      <path id="Vector_102" data-name="Vector 102" class="cls-4" d="m16.64,90.45c-.57-.7-1.3-1.24-2.13-1.58-1.45-.52-2.87-.06-4.55.42-3.4.94-7.04,2.99-8.95,1.58"/>
      <path id="Vector_103" data-name="Vector 103" class="cls-4" d="m51.47,91.65l-.16-6.06"/>
    </g>
  </g>
</svg>