<?xml version="1.0" encoding="UTF-8"?>
<svg id="_レイヤー_2" data-name="レイヤー 2" xmlns="http://www.w3.org/2000/svg" viewBox="0 0 114.87 41.95">
  <defs>
    <style>
      .cls-1 {
        fill: #a6aa8f;
      }

      .cls-2, .cls-3 {
        fill: #bea072;
      }

      .cls-3 {
        stroke: #bea072;
        stroke-linecap: round;
        stroke-miterlimit: 10;
      }
    </style>
  </defs>
  <g id="PC文字">
    <g>
      <path class="cls-1" d="m1.04,19.16c1.33,0,3.42.18,4.1.18,1.37,0,2.34-.11,3.38-.11.97,0,1.19.43,1.19.65,0,.4-.43.72-1.04.83-1.4.29-1.48,1.08-1.22,2.05.29,1.08,3.53,9.72,4.61,12.38.18.32.4.47.47.22.29-.65,2.59-6.77,3.92-10.37.32-.86.32-1.22.29-1.55,0-.25-.14-.9-.47-1.55-.43-.83-1.08-1.04-1.84-1.22-.43-.14-1.01-.32-1.01-.86,0-.29.4-.58,1.08-.58,1.04,0,3.17.11,4.14.11s1.8-.11,2.81-.11c.68,0,1.04.32,1.04.58s-.32.65-.94.83c-.9.18-1.55.47-1.55,1.04,0,.5.14,1.01.4,1.84.86,2.66,3.67,9.93,4.54,11.88.11.22.36.14.47-.04.79-1.87,2.7-7.49,3.67-10.4.68-2.02.76-2.56.76-3.1,0-.65-1.01-.97-1.8-1.19-.65-.18-.9-.61-.9-.83s.29-.61.97-.61c.47,0,2.12.11,3.35.11s2.41-.18,3.13-.18,1.04.25,1.04.65c0,.36-.47.68-.83.79-2.02.65-2.45,1.3-3.13,2.84-.79,1.69-3.2,8.39-4.68,12.27-.32.9-1.26,3.56-1.62,4.68-.36,1.04-1.01,1.51-1.26,1.51-.58,0-1.01-.54-1.33-1.62-1.22-3.82-3.85-10.47-4.9-13.21,0-.07-.36-.36-.47-.11-1.22,3.28-3.89,10.22-4.39,11.77-.43,1.08-.65,1.69-1.01,2.23-.14.25-.65.97-.9.97-.4,0-.83-.47-.94-.9-.36-1.26-1.01-2.99-1.66-4.97-1.4-3.78-3.1-8.1-3.89-10.26-1.44-3.78-1.98-4.79-3.49-5.18-.97-.25-1.15-.61-1.15-.94s.5-.54,1.04-.54Z"/>
      <path class="cls-1" d="m67.25,28.74c-.32.29-1.76,1.22-2.16,1.4-.11.04-.14.43-.04.61.54,1.08,3.02,4.93,4.64,6.8,1.73,1.91,2.74,2.45,4.14,2.81.36.11.54.36.54.58,0,.72-1.55.9-2.09.9-1.73,0-3.96-.18-6.59-3.64-1.3-1.69-3.24-4.61-3.96-5.65-.83-1.15-1.66-1.22-2.77-1.22-.29,0-.5.36-.5.54,0,2.88.04,4.61.14,5.87.11,1.3.58,1.69,2.2,2.16.68.22,1.01.43,1.01.83,0,.43-.65.68-1.22.68-.9,0-2.84-.14-4.1-.14-1.12,0-1.91.14-3.24.14-.86,0-1.33-.29-1.33-.65,0-.32.4-.58,1.04-.79,1.44-.47,1.87-.65,1.94-2.45.04-1.3.04-2.41.04-8.89,0-4.28-.07-5.72-.14-6.48-.07-.72-.58-1.15-1.94-1.4-.61-.11-1.04-.47-1.04-.76,0-.58.68-.72,1.44-.72h3.13c1.55,0,3.06-.18,4.9-.18,3.17,0,4.57.72,5.44,1.37,1.66,1.26,2.23,2.81,2.23,4.46,0,1.33-.65,2.84-1.69,3.82Zm-6.95-8.14c-.4,0-1.19.14-1.51.29-.18.07-.4.4-.4.72-.04,1.84.04,5.65.07,7.52,0,.22.14.4.29.43.79.25,1.4.32,2.12.32.54,0,2.48-.65,3.17-1.26.54-.5,1.19-1.76,1.19-3.24,0-2.52-1.4-4.79-4.93-4.79Z"/>
      <path class="cls-1" d="m75.81,19.16c.5,0,2.74.18,3.64.18,1.73,0,3.67-.07,4.07-.07.36,0,1.01.18,1.01.58,0,.47-.65.79-.94.86-1.58.4-1.87.86-1.87,1.44,0,.47-.18,5.69-.07,6.91.04.18.14.29.4.29.14,0,.47-.11.9-.47,2.23-1.87,6.3-5.83,7.31-7.09.29-.36.14-.72-1.04-.97-.68-.14-1.04-.43-1.04-.86,0-.22.29-.61.94-.61h1.91c2.16-.04,3.74-.25,5.18-.25,1.08,0,1.37.32,1.37.68,0,.25-.36.65-1.15.79-1.55.29-2.99.97-4.43,2.16-1.44,1.12-2.88,2.3-6.34,5.54-.07.11-.11.4,0,.54,2.92,3.38,6.95,7.49,8.39,8.89,1.37,1.37,2.27,1.76,3.78,2.27.83.29,1.08.47,1.08.9,0,.22-.4.65-1.08.65-1.69,0-5.18-.25-6.55-.25h-1.8c-.5,0-.97-.32-.97-.72,0-.29.32-.58,1.04-.79.76-.22.9-.61.47-1.15-1.37-1.62-5.4-5.87-7.13-7.63-.36-.36-.72-.5-.86-.5-.25,0-.36.29-.36.68,0,1.66-.04,4.82.11,6.7.11,1.58.79,1.69,2.09,2.02,1.01.22,1.22.54,1.22.86,0,.36-.5.68-1.01.68-.43,0-2.56-.14-3.67-.14-1.69,0-4.1.22-4.75.22-.47,0-1.12-.22-1.12-.65s.4-.65,1.01-.83c1.87-.47,2.3-.83,2.41-2.41.07-1.15.18-2.52.18-8.6,0-5.54,0-5.94-.07-6.66-.11-.65-.14-1.19-2.05-1.66-.83-.18-1.22-.5-1.22-.86,0-.29.47-.65,1.04-.65Z"/>
      <path class="cls-1" d="m113.61,19.56c.22.04.43.61.43,1.01,0,.43.18,2.12.18,2.66,0,.83-.32,1.3-.79,1.3-.32,0-.58-.58-.65-.86-.72-2.3-2.23-3.53-4.46-3.53-2.02,0-3.46,1.69-3.46,3.42,0,2.09.94,3.17,3.96,4.9,3.67,2.05,6.05,3.82,6.05,7.24,0,2.41-1.69,4.1-2.84,4.86-1.3.83-3.46,1.37-5,1.37-1.87,0-4.5-.61-5.33-1.22-.18-.14-.4-.32-.58-.72-.43-.97-.58-2.45-.58-3.31,0-.79.32-1.26.65-1.26.5,0,.68.43.97.97,1.33,2.99,3.64,4.03,5.54,4.03,1.48,0,3.53-1.12,3.53-3.56,0-1.66-.83-2.81-4.68-5.15-2.52-1.48-5-3.46-5-6.91,0-2.38,1.44-4,2.92-4.93,1.15-.68,2.77-1.15,4.54-1.15s3.31.54,4.61.86Z"/>
    </g>
    <g>
      <line class="cls-3" x1="44.95" y1=".5" x2="44.95" y2="36.5"/>
      <path class="cls-2" d="m45.82,34.07c0,3.21-1.94,5.67-3.24,6.67-1.32,1.03-2.78,1.16-3.4,1.16-1.16,0-2.81-.89-2.81-3.46,0-1.57.65-3.81,2-5.51,1.38-1.7,3.16-2.46,4.45-2.46,2.05,0,3,2,3,3.59Zm-4.99-1.08c-1.05,1.7-2.11,4.91-2.11,6.8,0,1.13.38,1.51.7,1.51.4,0,.86-.35,1.46-1.13,1.19-1.59,2.78-5.94,2.78-7.99,0-.84-.38-1.13-.65-1.13-.57,0-1.38.67-2.19,1.94Z"/>
    </g>
  </g>
</svg>